<svg width="87" height="87" viewBox="0 0 87 87" fill="none" xmlns="http://www.w3.org/2000/svg">
<g clip-path="url(#clip0_750_4081)">
<path d="M38.991 40.7007H82.52C84.9125 40.7007 86.8555 38.7577 86.8555 36.3652V4.45073C86.8555 2.05823 84.9125 0.115234 82.52 0.115234H38.991C36.5985 0.115234 34.6555 2.05823 34.6555 4.45073V20.4007H25.796C27.681 18.5592 28.8555 15.9927 28.8555 13.1507C28.8555 7.55373 24.3025 3.00073 18.7055 3.00073C13.1085 3.00073 8.55547 7.55373 8.55547 13.1507C8.55547 16.0217 9.75897 18.6172 11.6875 20.4587C5.06097 21.0677 -0.144531 26.6502 -0.144531 33.4362V52.2427C-0.144531 54.6642 1.82747 56.6362 4.24897 56.6362H5.65547C6.16297 56.6362 6.65597 56.5347 7.10547 56.3752V80.5612C7.10547 84.1572 10.0345 87.0862 13.6305 87.0862C15.559 87.0862 17.3135 86.2452 18.5025 84.8967C19.561 86.2307 21.185 87.0862 23.0265 87.0862H85.4055C86.203 87.0862 86.8555 86.4337 86.8555 85.6362V76.9362C86.8555 70.1502 81.65 64.5677 75.0235 63.9587C76.952 62.1172 78.1555 59.5217 78.1555 56.6507C78.1555 51.0537 73.6025 46.5007 68.0055 46.5007C62.4085 46.5007 57.8555 51.0537 57.8555 56.6507C57.8555 59.5362 59.0735 62.1317 61.002 63.9732C59.407 64.1182 57.8555 64.5677 56.42 65.2782C55.0135 64.5822 53.462 64.1182 51.838 63.9587C53.7665 62.1172 54.97 59.5217 54.97 56.6507C54.97 51.0537 50.417 46.5007 44.82 46.5007C39.223 46.5007 34.67 51.0537 34.67 56.6507C34.67 59.5217 35.8735 62.1172 37.802 63.9587C35.5835 64.1617 33.5245 64.9302 31.77 66.1047V30.5507H34.67V36.3652C34.67 38.7577 36.613 40.7007 39.0055 40.7007H38.991ZM37.5555 4.45073C37.5555 3.66773 38.1935 3.01523 38.991 3.01523H82.52C83.303 3.01523 83.9555 3.65323 83.9555 4.45073V36.3652C83.9555 37.1482 83.3175 37.8007 82.52 37.8007H38.991C38.208 37.8007 37.5555 37.1627 37.5555 36.3652V30.5507H52.7805C55.579 30.5507 57.8555 28.2742 57.8555 25.4757C57.8555 22.6772 55.579 20.4007 52.7805 20.4007H37.5555V4.45073ZM11.4555 13.1507C11.4555 9.14873 14.7035 5.90073 18.7055 5.90073C22.7075 5.90073 25.9555 9.14873 25.9555 13.1507C25.9555 17.1527 22.7075 20.4007 18.7055 20.4007C14.7035 20.4007 11.4555 17.1527 11.4555 13.1507ZM60.7555 56.6507C60.7555 52.6487 64.0035 49.4007 68.0055 49.4007C72.0075 49.4007 75.2555 52.6487 75.2555 56.6507C75.2555 60.6527 72.0075 63.9007 68.0055 63.9007C64.0035 63.9007 60.7555 60.6527 60.7555 56.6507ZM62.191 66.8007H73.8055C79.4025 66.8007 83.941 71.3537 83.941 76.9362V84.1862H78.2135V78.3862C78.2135 77.5887 77.561 76.9362 76.7635 76.9362C75.966 76.9362 75.3135 77.5887 75.3135 78.3862V84.1862H63.641V76.9362C63.641 73.0792 61.9445 69.6282 59.2765 67.2357C60.219 66.9602 61.1905 66.8007 62.1765 66.8007H62.191ZM37.5555 56.6507C37.5555 52.6487 40.8035 49.4007 44.8055 49.4007C48.8075 49.4007 52.0555 52.6487 52.0555 56.6507C52.0555 60.6527 48.8075 63.9007 44.8055 63.9007C40.8035 63.9007 37.5555 60.6527 37.5555 56.6507ZM38.991 66.8007H50.6055C56.2025 66.8007 60.741 71.3537 60.741 76.9362V84.1862H55.057V78.3862C55.057 77.5887 54.4045 76.9362 53.607 76.9362C52.8095 76.9362 52.157 77.5887 52.157 78.3862V84.1862H34.7135V78.3862C34.7135 77.5887 34.061 76.9362 33.2635 76.9362C32.466 76.9362 31.8135 77.5887 31.8135 78.3862V84.1862H28.841V76.9362C28.841 71.3392 33.394 66.8007 38.9765 66.8007H38.991ZM30.3055 27.6507C29.508 27.6507 28.8555 28.3032 28.8555 29.1007V68.2507C28.8555 68.3957 28.899 68.5262 28.9425 68.6567C27.0865 70.9187 25.9555 73.8042 25.9555 76.9507V84.2007H23.0265C21.446 84.2007 20.1555 82.9102 20.1555 81.3297V59.5507C20.1555 58.7532 19.503 58.1007 18.7055 58.1007C17.908 58.1007 17.2555 58.7532 17.2555 59.5507V80.5757C17.2555 82.5767 15.6315 84.2007 13.6305 84.2007C11.6295 84.2007 10.0055 82.5767 10.0055 80.5757V34.9007C10.0055 34.1032 9.35297 33.4507 8.55547 33.4507C7.75797 33.4507 7.10547 34.1032 7.10547 34.9007V52.3007C7.10547 53.0982 6.45297 53.7507 5.65547 53.7507H4.24897C3.42247 53.7507 2.75547 53.0837 2.75547 52.2572V33.4507C2.75547 27.8537 7.30847 23.3152 12.891 23.3152H52.7805C53.984 23.3152 54.9555 24.2867 54.9555 25.4902C54.9555 26.6937 53.984 27.6652 52.7805 27.6652H30.3055V27.6507Z" fill="#008065"/>
</g>
<defs>
<clipPath id="clip0_750_4081">
<rect width="87" height="87" fill="white"/>
</clipPath>
</defs>
</svg>
