<svg width="120" height="120" viewBox="0 0 120 120" fill="none" xmlns="http://www.w3.org/2000/svg">
<g clip-path="url(#clip0_750_4038)">
<path d="M47.621 16.7004H49.881V51.7404C49.881 52.8404 50.781 53.7404 51.881 53.7404C52.981 53.7404 53.881 52.8404 53.881 51.7404V16.7004H61.221C62.321 16.7004 63.221 15.8004 63.221 14.7004C63.221 13.6004 62.321 12.7004 61.221 12.7004H52.441L60.001 5.14043L67.561 12.7004C66.461 12.7004 65.561 13.6004 65.561 14.7004V52.7804C65.561 53.8804 66.461 54.7804 67.561 54.7804C68.661 54.7804 69.561 53.8804 69.561 52.7804V16.7004H72.401C73.201 16.7004 73.941 16.2204 74.241 15.4604C74.541 14.7204 74.381 13.8604 73.801 13.2804L61.421 0.90043C60.641 0.12043 59.381 0.12043 58.601 0.90043L46.221 13.2804C45.641 13.8604 45.481 14.7204 45.781 15.4604C46.081 16.2004 46.821 16.7004 47.621 16.7004Z" fill="#008065"/>
<path d="M85.8202 39.3401H88.0802V60.8001C88.0802 61.9001 88.9802 62.8001 90.0802 62.8001C91.1802 62.8001 92.0802 61.9001 92.0802 60.8001V39.3401H99.4202C100.52 39.3401 101.42 38.4401 101.42 37.3401C101.42 36.2401 100.52 35.3401 99.4202 35.3401H90.6402L98.2002 27.7801L105.76 35.3401C104.66 35.3401 103.76 36.2401 103.76 37.3401V68.2201C103.76 69.3201 104.66 70.2201 105.76 70.2201C106.86 70.2201 107.76 69.3201 107.76 68.2201V39.3401H110.6C111.4 39.3401 112.14 38.8601 112.44 38.1001C112.74 37.3601 112.58 36.5001 112 35.9201L99.6202 23.5401C98.8402 22.7601 97.5802 22.7601 96.8002 23.5401L84.4202 35.9201C83.8402 36.5001 83.6802 37.3601 83.9802 38.1001C84.2802 38.8401 85.0202 39.3401 85.8202 39.3401Z" fill="#008065"/>
<path d="M9.44128 39.3401H12.2813V68.2201C12.2813 69.3201 13.1813 70.2201 14.2813 70.2201C15.3813 70.2201 16.2813 69.3201 16.2813 68.2201V37.3401C16.2813 36.2401 15.3813 35.3401 14.2813 35.3401L21.8413 27.7801L29.4013 35.3401H20.6213C19.5213 35.3401 18.6213 36.2401 18.6213 37.3401C18.6213 38.4401 19.5213 39.3401 20.6213 39.3401H27.9613V62.2801C27.9613 63.3801 28.8613 64.2801 29.9613 64.2801C31.0613 64.2801 31.9613 63.3801 31.9613 62.2801V39.3401H34.2213C35.0213 39.3401 35.7613 38.8601 36.0613 38.1001C36.3613 37.3601 36.2013 36.5001 35.6213 35.9201L23.2413 23.5401C22.4613 22.7601 21.2013 22.7601 20.4213 23.5401L8.04128 35.9201C7.46128 36.5001 7.30128 37.3601 7.60128 38.1001C7.90128 38.8401 8.64128 39.3401 9.44128 39.3401Z" fill="#008065"/>
<path d="M44.4193 105.48C43.3193 105.44 42.3593 106.24 42.2993 107.36L41.6593 117.56C41.5993 118.66 42.4193 119.62 43.5393 119.68C43.5793 119.68 43.6193 119.68 43.6593 119.68C44.6993 119.68 45.5793 118.86 45.6593 117.8L46.2993 107.6C46.3593 106.5 45.5393 105.54 44.4193 105.48Z" fill="#008065"/>
<path d="M75.6018 105.48C74.5018 105.56 73.6618 106.5 73.7218 107.6L74.3618 117.8C74.4218 118.86 75.3018 119.68 76.3618 119.68C76.4018 119.68 76.4418 119.68 76.4818 119.68C77.5818 119.6 78.4218 118.66 78.3618 117.56L77.7218 107.36C77.6618 106.26 76.7018 105.44 75.6018 105.48Z" fill="#008065"/>
<path d="M60.0197 58.7998C52.6597 58.7998 46.6797 64.7798 46.6797 72.1398C46.6797 79.4998 52.6597 85.4798 60.0197 85.4798C67.3797 85.4798 73.3597 79.4998 73.3597 72.1398C73.3597 64.7798 67.3797 58.7998 60.0197 58.7998ZM60.0197 81.4598C54.8797 81.4598 50.6797 77.2798 50.6797 72.1198C50.6797 66.9598 54.8597 62.7798 60.0197 62.7798C65.1797 62.7798 69.3597 66.9598 69.3597 72.1198C69.3597 77.2798 65.1797 81.4598 60.0197 81.4598Z" fill="#008065"/>
<path d="M119.059 105.2C119.039 103.46 118.519 101.68 117.499 99.9403C116.439 98.0603 114.679 96.6203 112.579 95.8603L106.539 93.7003C105.599 93.3603 104.579 93.7603 104.099 94.6403L98.6388 104.78H97.7188L92.2588 94.6403C91.7988 93.7603 90.7588 93.3803 89.8188 93.7003L84.9988 95.4403C84.8788 95.2203 84.7988 95.0203 84.6788 94.8003C83.3588 92.4803 81.1988 90.6803 78.5588 89.7403L70.6788 86.9203C70.1988 86.7403 69.6788 86.7603 69.1988 86.9803L61.7188 90.2603H58.2388L50.7588 86.9803C50.2988 86.7803 49.7588 86.7603 49.2788 86.9203L41.3988 89.7403C38.7788 90.6803 36.6188 92.4803 35.2988 94.8003C35.1788 95.0003 35.0988 95.2203 34.9788 95.4203L30.1188 93.7003C29.1788 93.3603 28.1588 93.7603 27.6788 94.6403L22.2188 104.78H21.2988L15.8388 94.6403C15.3788 93.7603 14.3388 93.3603 13.3988 93.7003L7.35884 95.8603C5.25884 96.6203 3.49884 98.0803 2.43884 99.9403C1.41884 101.7 0.898841 103.48 0.878841 105.22C0.778841 106.08 0.178841 111.92 -0.0611593 117.64C-0.101159 118.74 0.758841 119.68 1.85884 119.72C1.87884 119.72 1.91884 119.72 1.93884 119.72C2.99884 119.72 3.89884 118.88 3.93884 117.8C4.17884 111.8 4.85884 105.62 4.85884 105.56C4.85884 105.48 4.85884 105.42 4.85884 105.34C4.85884 104.02 5.41884 102.76 5.89884 101.94C6.49884 100.9 7.49884 100.08 8.69884 99.6403L13.1188 98.0603L18.3188 107.74C18.6588 108.38 19.3388 108.8 20.0788 108.8H23.3988C24.1388 108.8 24.8188 108.4 25.1588 107.74L30.3588 98.0603L33.5588 99.2003C33.3988 99.9603 33.2988 100.7 33.2788 101.44C33.1788 102.44 32.3588 110.12 32.0588 117.64C32.0188 118.74 32.8788 119.68 33.9788 119.72C35.1188 119.82 36.0188 118.9 36.0588 117.8C36.3788 109.94 37.2588 101.86 37.2788 101.78C37.2788 101.7 37.2788 101.64 37.2788 101.56C37.2788 99.6803 38.0588 97.9603 38.7188 96.8203C39.5788 95.3203 40.9988 94.1603 42.6988 93.5403L49.8188 91.0003L56.9588 94.1403C57.2188 94.2603 57.4788 94.3003 57.7588 94.3003H62.0788C62.3588 94.3003 62.6388 94.2403 62.8788 94.1403L70.0188 91.0003L77.1388 93.5403C78.8588 94.1603 80.2788 95.3403 81.1388 96.8403C81.7988 97.9603 82.5588 99.7003 82.5588 101.58C82.5588 101.66 82.5588 101.72 82.5588 101.8C82.5588 101.88 83.4588 109.96 83.7788 117.82C83.8188 118.9 84.6988 119.74 85.7788 119.74C85.7988 119.74 85.8388 119.74 85.8588 119.74C86.9588 119.7 87.8188 118.76 87.7788 117.66C87.4788 110.14 86.6588 102.46 86.5588 101.46C86.5588 100.72 86.4388 99.9803 86.2988 99.2403L89.4788 98.0803L94.6788 107.76C95.0188 108.4 95.6988 108.82 96.4388 108.82H99.7588C100.499 108.82 101.179 108.42 101.519 107.76L106.719 98.0803L111.119 99.6603C112.339 100.1 113.339 100.92 113.939 101.98C114.419 102.8 114.979 104.04 114.979 105.36C114.979 105.44 114.979 105.5 114.979 105.58C114.979 105.64 115.659 111.82 115.899 117.82C115.939 118.9 116.819 119.74 117.899 119.74C117.919 119.74 117.959 119.74 117.979 119.74C119.079 119.7 119.939 118.76 119.899 117.66C119.679 111.94 119.059 106.1 118.959 105.24L119.059 105.2Z" fill="#008065"/>
<path d="M110.102 107.88C109.002 107.96 108.162 108.9 108.222 110L108.722 117.82C108.782 118.88 109.662 119.7 110.722 119.7C110.762 119.7 110.802 119.7 110.842 119.7C111.942 119.62 112.782 118.68 112.722 117.58L112.222 109.76C112.162 108.66 111.222 107.86 110.102 107.88Z" fill="#008065"/>
<path d="M98.1995 72.1396C92.3195 72.1396 87.5195 76.9196 87.5195 82.8196C87.5195 88.7196 92.2995 93.4996 98.1995 93.4996C104.1 93.4996 108.88 88.7196 108.88 82.8196C108.88 76.9196 104.1 72.1396 98.1995 72.1396ZM98.1995 89.4797C94.5195 89.4797 91.5195 86.4797 91.5195 82.7997C91.5195 79.1197 94.5195 76.1197 98.1995 76.1197C101.88 76.1197 104.88 79.1197 104.88 82.7997C104.88 86.4797 101.88 89.4797 98.1995 89.4797Z" fill="#008065"/>
<path d="M9.90043 107.88C8.80043 107.84 7.84044 108.64 7.78044 109.76L7.28044 117.58C7.22044 118.68 8.04043 119.64 9.16043 119.7C9.20043 119.7 9.24043 119.7 9.28043 119.7C10.3204 119.7 11.2004 118.88 11.2804 117.82L11.7804 110C11.8404 108.9 11.0204 107.94 9.90043 107.88Z" fill="#008065"/>
<path d="M21.8011 72.1396C15.9211 72.1396 11.1211 76.9196 11.1211 82.8196C11.1211 88.7196 15.9011 93.4996 21.8011 93.4996C27.7011 93.4996 32.4811 88.7196 32.4811 82.8196C32.4811 76.9196 27.7011 72.1396 21.8011 72.1396ZM21.8011 89.4797C18.1211 89.4797 15.1211 86.4797 15.1211 82.7997C15.1211 79.1197 18.1211 76.1197 21.8011 76.1197C25.4811 76.1197 28.4811 79.1197 28.4811 82.7997C28.4811 86.4797 25.4811 89.4797 21.8011 89.4797Z" fill="#008065"/>
</g>
<defs>
<clipPath id="clip0_750_4038">
<rect width="120" height="120" fill="white"/>
</clipPath>
</defs>
</svg>
