<svg width="120" height="118" viewBox="0 0 120 118" fill="none" xmlns="http://www.w3.org/2000/svg">
<g clip-path="url(#clip0_750_4052)">
<path d="M114.139 33.4333L119.319 25.783C120.139 24.5833 120.219 23.0297 119.519 21.7513C118.819 20.473 117.479 19.6667 115.999 19.6667H103.999V13.7667C103.999 11.6033 102.199 9.83333 99.9985 9.83333H75.9985V7.86667C75.9985 6.785 75.0985 5.9 73.9985 5.9C72.8985 5.9 71.9985 6.785 71.9985 7.86667V41.3H64.4385C63.5585 41.3 62.7585 40.887 62.2585 40.179L55.8385 31.152C54.1185 28.8903 51.3585 27.5333 48.4985 27.5333H47.7985C50.3985 25.0357 52.0185 21.5547 52.0185 17.7V13.7667C52.0185 6.17533 45.7385 0 38.0185 0C30.2985 0 24.0185 6.17533 24.0185 13.7667V17.7C24.0185 21.5743 25.6585 25.075 28.2985 27.5727C25.1385 27.6907 22.0785 28.7527 19.5985 30.6603L17.0785 32.627C5.89851 41.2803 3.43851 43.188 2.85851 43.6403C0.99851 44.9383 -0.0614893 47.082 -0.00148935 49.383C0.0585106 51.6643 1.19851 53.7293 2.91851 54.8503C2.91851 54.8503 11.6985 61.596 16.5385 65.3327C18.4385 66.8077 20.9985 67.201 23.2185 66.4537L14.1985 108.501C13.7385 110.546 14.1385 112.651 15.2985 114.401C16.4585 116.171 18.2585 117.39 20.3185 117.803C20.8585 117.921 21.4385 118 22.0385 118C25.7785 118 29.0785 115.384 29.8385 111.825L38.0185 79.0403L46.1985 111.766C46.9785 115.384 50.2785 118 54.0185 118C54.6185 118 55.1785 117.941 55.6985 117.823C57.7985 117.39 59.5985 116.171 60.7585 114.401C61.9185 112.631 62.3185 110.546 61.8585 108.501L52.7185 65.962C52.2585 63.8577 52.0185 61.655 52.0185 59.4327V50.8187L52.2985 51.2317C53.9185 53.631 56.6385 55.0667 59.5785 55.0667H71.9585V116.033C71.9585 117.115 72.8585 118 73.9585 118C75.0585 118 75.9585 117.115 75.9585 116.033V54.9683C79.3385 54.4767 81.9585 51.6447 81.9585 48.1833C81.9585 44.722 79.3385 41.89 75.9585 41.3983V37.3667H88.6785C88.1385 38.4877 87.8585 39.7463 87.9985 41.0247C88.3585 44.486 91.5385 47.2 95.2385 47.2H115.959C117.439 47.2 118.799 46.4133 119.479 45.1153C120.179 43.837 120.099 42.2833 119.279 41.0837L114.099 33.4333H114.139ZM27.9985 17.7V13.7667C27.9985 8.33867 32.4785 3.93333 37.9985 3.93333C43.5185 3.93333 47.9985 8.33867 47.9985 13.7667V17.7C47.9985 23.128 43.5185 27.5333 37.9985 27.5333C32.4785 27.5333 27.9985 23.128 27.9985 17.7ZM77.9985 48.1833C77.9985 49.8157 76.6585 51.1333 74.9985 51.1333H59.6185C58.0185 51.1333 56.5385 50.3467 55.6585 49.0487L51.7185 43.2273C51.2385 42.4997 50.3185 42.185 49.4785 42.4407C48.6385 42.6963 48.0585 43.4633 48.0585 44.3287V59.4523C48.0585 61.95 48.3185 64.428 48.8385 66.8077L57.9785 109.347C58.1985 110.369 57.9985 111.412 57.4385 112.277C56.8585 113.162 55.9585 113.772 54.8585 113.988C54.6185 114.047 54.3585 114.067 54.0585 114.067C52.1785 114.067 50.5385 112.749 50.1385 110.881L41.7985 77.4473C41.3785 75.756 39.8785 74.6153 38.0785 74.6153C36.2785 74.6153 34.7785 75.756 34.3585 77.4473L25.9985 110.94C25.5385 113.024 23.3985 114.46 21.2385 113.968C20.1785 113.752 19.2785 113.142 18.6985 112.257C18.1185 111.392 17.9185 110.33 18.1585 109.307L27.3985 66.198C27.8385 64.2117 28.0585 62.127 28.0585 59.8457V41.3C28.0585 40.5527 27.6185 39.8643 26.9385 39.53C26.2585 39.1957 25.4385 39.2743 24.8385 39.7267L14.5385 47.4557C14.0585 47.8097 13.7585 48.38 13.7585 48.97C13.7585 49.56 14.0185 50.1303 14.4785 50.5237L22.9985 57.525C23.6585 58.0953 24.0585 58.9213 24.0585 59.8063V59.8653C24.0585 60.4947 23.8585 61.065 23.4985 61.5763C22.4985 62.953 20.4185 63.2677 19.0585 62.2253C14.2385 58.4887 5.43851 51.743 5.29851 51.6447C4.51851 51.1333 4.05851 50.2877 4.03851 49.2847C4.01851 48.2817 4.45851 47.3573 5.27851 46.7673C5.49851 46.5903 13.6385 40.297 19.5385 35.7147L22.0585 33.748C23.9785 32.273 26.3785 31.447 28.8185 31.447H48.4785C50.1185 31.447 51.6385 32.1943 52.5785 33.4333L58.9585 42.4013C60.1985 44.1517 62.2585 45.194 64.4185 45.194H74.9785C76.6385 45.194 77.9785 46.5117 77.9785 48.144L77.9985 48.1833ZM24.0185 53.277L18.9185 49.088L24.0185 45.2727V53.277ZM75.9985 13.7667H99.9985V33.4333H75.9985V13.7667ZM95.2785 43.2667C93.5985 43.2667 92.1585 42.1063 92.0185 40.6313C91.9385 39.7857 92.1985 38.9597 92.7785 38.35C93.3585 37.7207 94.1385 37.3863 94.9985 37.3863H99.9985C102.199 37.3863 103.999 35.6163 103.999 33.453V23.6197H115.999L110.819 31.27C109.919 32.5877 109.919 34.2987 110.819 35.636L115.999 43.2863H95.2785V43.2667Z" fill="#008065"/>
</g>
<defs>
<clipPath id="clip0_750_4052">
<rect width="120" height="118" fill="white"/>
</clipPath>
</defs>
</svg>
