<svg width="90" height="90" viewBox="0 0 90 90" fill="none" xmlns="http://www.w3.org/2000/svg">
<path d="M30.8516 31.3018H61.8481C62.819 31.3018 63.6059 30.5149 63.6059 29.5439C63.6059 28.5737 62.819 27.7861 61.8481 27.7861H30.8516C29.8806 27.7861 29.0938 28.5737 29.0938 29.5439C29.0938 30.5149 29.8806 31.3018 30.8516 31.3018Z" fill="#008065"/>
<path d="M14.6562 31.3018C15.1184 31.3018 15.5702 31.1143 15.8991 30.7868C16.2259 30.4599 16.4141 30.0067 16.4141 29.5439C16.4141 29.0805 16.2259 28.6286 15.8991 28.2997C15.5715 27.9729 15.1184 27.7861 14.6562 27.7861C14.1921 27.7861 13.7403 27.9729 13.4114 28.2997C13.0845 28.6286 12.8984 29.0805 12.8984 29.5439C12.8984 30.0067 13.0845 30.4599 13.4114 30.7868C13.7403 31.1143 14.1935 31.3018 14.6562 31.3018Z" fill="#008065"/>
<path d="M9.16797 31.3018C9.63077 31.3018 10.084 31.1143 10.4108 30.7868C10.7376 30.4586 10.9258 30.0067 10.9258 29.5439C10.9258 29.0818 10.7376 28.6286 10.4108 28.2997C10.0826 27.9729 9.63077 27.7861 9.16797 27.7861C8.70586 27.7861 8.25267 27.9729 7.92514 28.2997C7.59692 28.6286 7.41016 29.0805 7.41016 29.5439C7.41016 30.0067 7.59692 30.4599 7.92514 30.7868C8.25267 31.1143 8.70448 31.3018 9.16797 31.3018Z" fill="#008065"/>
<path d="M20.1406 31.3018C20.6048 31.3018 21.0566 31.1143 21.3855 30.7868C21.7124 30.4586 21.8984 30.0067 21.8984 29.5439C21.8984 29.0805 21.7124 28.6286 21.3855 28.3018C21.0587 27.9729 20.6048 27.7861 20.1406 27.7861C19.6785 27.7861 19.2253 27.9729 18.8985 28.3018C18.571 28.6286 18.3828 29.0805 18.3828 29.5439C18.3828 30.0067 18.571 30.4586 18.8985 30.7868C19.2267 31.1143 19.6785 31.3018 20.1406 31.3018Z" fill="#008065"/>
<path d="M85.0781 8.78906H23.9062C21.1926 8.78906 18.9844 10.9973 18.9844 13.7109V21.4577H4.92188C2.20825 21.4577 0 23.6659 0 26.3795V76.3014C0 79.0157 2.20825 81.2233 4.92188 81.2233H58.5654C59.0316 81.2233 59.4786 81.0379 59.8082 80.7083L70.5006 70.0159C70.8192 69.698 71.0012 69.2695 71.0129 68.8204H84.7266C87.6345 68.8204 90 66.4549 90 63.547V13.7109C90 10.9973 87.7917 8.78906 85.0781 8.78906ZM22.5 13.7109C22.5 12.9357 23.131 12.3047 23.9062 12.3047H85.0781C85.8533 12.3047 86.4844 12.9357 86.4844 13.7109V21.4453L22.5 21.4577V13.7109ZM4.92188 24.9733H66.0938C66.869 24.9733 67.5 25.6043 67.5 26.3795V34.1139H3.51562V26.3795C3.51562 25.6043 4.14665 24.9733 4.92188 24.9733ZM60.3232 75.222V71.9371C60.3232 71.1619 60.9542 70.5309 61.7294 70.5309H65.0143L60.3232 75.222ZM84.7266 65.3048H71.0156V55.8167C71.0156 54.8458 70.2287 54.0589 69.2578 54.0589C68.2869 54.0589 67.5 54.8458 67.5 55.8167V67.0152H61.7294C59.0151 67.0152 56.8076 69.2235 56.8076 71.9371V77.7077H4.92188C4.14665 77.7077 3.51562 77.0773 3.51562 76.3014V37.6295H67.5V42.0179C67.5 42.9888 68.2869 43.7757 69.2578 43.7757C70.2287 43.7757 71.0156 42.9888 71.0156 42.0179V26.3795C71.0156 25.8865 70.9422 25.4107 70.8062 24.9609H86.4844V63.547C86.4844 64.5165 85.6961 65.3048 84.7266 65.3048Z" fill="#008065"/>
<path d="M80.8332 18.6328C81.8041 18.6328 82.591 17.8459 82.591 16.875C82.591 15.9041 81.8041 15.1172 80.8332 15.1172H49.8359C48.865 15.1172 48.0781 15.9041 48.0781 16.875C48.0781 17.8459 48.865 18.6328 49.8359 18.6328H80.8332Z" fill="#008065"/>
<path d="M33.6406 15.1162C33.1765 15.1162 32.7246 15.3044 32.3978 15.6312C32.0689 15.958 31.8828 16.4119 31.8828 16.874C31.8828 17.3382 32.0689 17.79 32.3978 18.1182C32.7246 18.4458 33.1765 18.6318 33.6406 18.6318C34.1027 18.6318 34.5559 18.4458 34.8835 18.1182C35.2103 17.79 35.3984 17.3382 35.3984 16.874C35.3984 16.4119 35.2103 15.9601 34.8835 15.6312C34.5559 15.3044 34.1027 15.1162 33.6406 15.1162Z" fill="#008065"/>
<path d="M28.1523 15.1182C27.6889 15.1182 27.237 15.3042 26.9095 15.6311C26.5813 15.96 26.3945 16.4118 26.3945 16.876C26.3945 17.3381 26.5813 17.7899 26.9095 18.1181C27.237 18.4456 27.6902 18.6338 28.1523 18.6338C28.6151 18.6338 29.0683 18.4456 29.3952 18.1181C29.722 17.7899 29.9102 17.3381 29.9102 16.876C29.9102 16.4118 29.722 15.9579 29.3952 15.6311C29.0683 15.3042 28.6151 15.1182 28.1523 15.1182Z" fill="#008065"/>
<path d="M39.1289 15.1182C38.6647 15.1182 38.2115 15.3042 37.8861 15.6311C37.5572 15.9579 37.3711 16.4118 37.3711 16.876C37.3711 17.3381 37.5572 17.7913 37.8861 18.1181C38.2115 18.4456 38.6647 18.6317 39.1289 18.6317C39.591 18.6317 40.0449 18.4456 40.3717 18.1181C40.6986 17.7913 40.8847 17.3381 40.8847 16.876C40.8847 16.4118 40.6986 15.9579 40.3717 15.6311C40.0449 15.3042 39.591 15.1182 39.1289 15.1182Z" fill="#008065"/>
<path d="M44.4706 44.0944C43.9687 43.5911 43.212 43.4394 42.5549 43.712C41.897 43.9832 41.4686 44.6245 41.4686 45.3359V48.7945H19.8633C18.8924 48.7945 18.1055 49.5814 18.1055 50.5523V61.2777C18.1055 62.2487 18.8924 63.0356 19.8633 63.0356H41.4686V66.4935C41.4686 67.2049 41.897 67.8462 42.5549 68.1181C42.7718 68.2081 42.9998 68.2513 43.2257 68.2513C43.6837 68.2513 44.1341 68.0721 44.4706 67.735L55.0223 57.1565C55.7069 56.4705 55.7069 55.3595 55.0223 54.6736L44.4706 44.0944ZM44.9842 62.2425V61.2777C44.9842 60.3068 44.1973 59.5199 43.2264 59.5199H21.6211V52.3102H43.2264C44.1973 52.3102 44.9842 51.5226 44.9842 50.5523V49.5876L51.2952 55.915L44.9842 62.2425Z" fill="#008065"/>
<path d="M69.2578 47.291C68.7957 47.291 68.3418 47.4792 68.015 47.806C67.6881 48.1328 67.5 48.5867 67.5 49.0488C67.5 49.5109 67.6881 49.9648 68.015 50.2917C68.3418 50.6185 68.7957 50.8066 69.2578 50.8066C69.7199 50.8066 70.1738 50.6185 70.5006 50.2917C70.8275 49.9648 71.0156 49.5109 71.0156 49.0488C71.0156 48.5867 70.8275 48.1328 70.5006 47.806C70.1738 47.4792 69.7199 47.291 69.2578 47.291Z" fill="#008065"/>
</svg>
