<svg width="71" height="90" viewBox="0 0 71 90" fill="none" xmlns="http://www.w3.org/2000/svg">
<g clip-path="url(#clip0_750_3926)">
<path d="M69.1244 0H12.1094C11.9144 0 11.7194 0.045 11.5394 0.12C11.3594 0.195 11.1944 0.3 11.0594 0.45L-0.190625 11.685C-0.325625 11.82 -0.445624 11.985 -0.520624 12.165C-0.595624 12.345 -0.640625 12.54 -0.640625 12.75V88.5C-0.640625 89.325 0.034375 90 0.859375 90H69.1094C69.9344 90 70.6094 89.325 70.6094 88.5V1.5C70.6094 0.675 69.9344 0 69.1094 0H69.1244ZM67.6244 32.04H2.37438V14.235H12.1244C12.9494 14.235 13.6244 13.56 13.6244 12.735V3H67.6394V32.04H67.6244ZM21.3344 75.885C17.2994 75.24 14.1194 72.06 13.4744 68.025H21.3344V75.885ZM10.3544 35.205V43.065H2.49438C3.13938 39.045 6.33437 35.85 10.3544 35.205ZM10.3544 46.065V53.925C6.31938 53.28 3.13938 50.1 2.49438 46.065H10.3544ZM10.3544 65.025H2.49438C3.13938 61.005 6.33437 57.825 10.3544 57.18V65.025ZM3.54437 69.195C4.29437 68.445 5.29938 68.025 6.36438 68.025C8.56938 68.025 10.3544 69.81 10.3544 72.015V76.005H6.36438C4.15938 76.005 2.37438 74.22 2.37438 72.015C2.37438 70.95 2.79437 69.945 3.54437 69.195ZM13.3544 86.85V78.99H21.2144C20.5694 83.01 17.3744 86.205 13.3544 86.85ZM13.3544 75.99V74.61C13.7744 75.105 14.2394 75.57 14.7344 75.99H13.3544ZM13.3544 65.01V57.15C17.3894 57.795 20.5694 60.975 21.2144 65.01H13.3544ZM13.3544 50.04V46.05H17.3444C19.5494 46.05 21.3344 47.835 21.3344 50.04C21.3344 52.245 19.5494 54.03 17.3444 54.03C15.1394 54.03 13.3544 52.245 13.3544 50.04ZM13.3544 42.93V35.07H21.2144C20.5694 39.09 17.3744 42.285 13.3544 42.93ZM4.48938 11.25L10.6094 5.13V11.25H4.48938ZM2.37438 35.055H3.81438C3.28938 35.49 2.80938 35.985 2.37438 36.495V35.055ZM2.37438 52.68C3.37938 53.85 4.57938 54.84 5.94438 55.575C4.57938 56.31 3.37938 57.3 2.37438 58.47V52.695V52.68ZM2.37438 77.76C2.92938 78.15 3.55937 78.435 4.21937 78.66C3.54437 79.185 2.92938 79.77 2.37438 80.415V77.76ZM10.3544 79.14V87H2.49438C3.13938 82.98 6.33437 79.785 10.3544 79.14ZM19.9394 87C22.6244 84.705 24.3344 81.315 24.3344 77.52V66.54C24.3344 62.535 22.4294 58.965 19.4744 56.685C22.2794 55.77 24.3344 53.175 24.3344 50.07C24.3344 46.965 22.2944 44.355 19.4894 43.455C22.0694 41.445 23.8544 38.46 24.2444 35.055H67.6244V87.015H19.9394V87Z" fill="#008065"/>
<path d="M11.8555 23.0996C11.0305 23.0996 10.3555 23.7746 10.3555 24.5996C10.3555 25.4246 11.0305 26.0996 11.8555 26.0996H58.6555C59.4805 26.0996 60.1555 25.4246 60.1555 24.5996C60.1555 23.7746 59.4805 23.0996 58.6555 23.0996H11.8555Z" fill="#008065"/>
<path d="M58.6567 39.5547H29.8867C29.0617 39.5547 28.3867 40.2297 28.3867 41.0547C28.3867 41.8797 29.0617 42.5547 29.8867 42.5547H58.6567C59.4817 42.5547 60.1567 41.8797 60.1567 41.0547C60.1567 40.2297 59.4817 39.5547 58.6567 39.5547Z" fill="#008065"/>
<path d="M58.6567 47.0547H29.8867C29.0617 47.0547 28.3867 47.7297 28.3867 48.5547C28.3867 49.3797 29.0617 50.0547 29.8867 50.0547H58.6567C59.4817 50.0547 60.1567 49.3797 60.1567 48.5547C60.1567 47.7297 59.4817 47.0547 58.6567 47.0547Z" fill="#008065"/>
<path d="M58.6567 54.5703H29.8867C29.0617 54.5703 28.3867 55.2453 28.3867 56.0703C28.3867 56.8953 29.0617 57.5703 29.8867 57.5703H58.6567C59.4817 57.5703 60.1567 56.8953 60.1567 56.0703C60.1567 55.2453 59.4817 54.5703 58.6567 54.5703Z" fill="#008065"/>
<path d="M58.6567 62.0703H29.8867C29.0617 62.0703 28.3867 62.7453 28.3867 63.5703C28.3867 64.3953 29.0617 65.0703 29.8867 65.0703H58.6567C59.4817 65.0703 60.1567 64.3953 60.1567 63.5703C60.1567 62.7453 59.4817 62.0703 58.6567 62.0703Z" fill="#008065"/>
<path d="M58.6567 69.5703H29.8867C29.0617 69.5703 28.3867 70.2453 28.3867 71.0703C28.3867 71.8953 29.0617 72.5703 29.8867 72.5703H58.6567C59.4817 72.5703 60.1567 71.8953 60.1567 71.0703C60.1567 70.2453 59.4817 69.5703 58.6567 69.5703Z" fill="#008065"/>
<path d="M58.6567 77.085H29.8867C29.0617 77.085 28.3867 77.76 28.3867 78.585C28.3867 79.41 29.0617 80.085 29.8867 80.085H58.6567C59.4817 80.085 60.1567 79.41 60.1567 78.585C60.1567 77.76 59.4817 77.085 58.6567 77.085Z" fill="#008065"/>
</g>
<defs>
<clipPath id="clip0_750_3926">
<rect width="71" height="90" fill="white"/>
</clipPath>
</defs>
</svg>
