<svg width="90" height="90" viewBox="0 0 90 90" fill="none" xmlns="http://www.w3.org/2000/svg">
<g clip-path="url(#clip0_750_4096)">
<path d="M82.2292 0.105469H7.16922C3.04422 0.105469 -0.300781 3.45047 -0.300781 7.57547V63.1355C-0.300781 67.2605 3.04422 70.6055 7.16922 70.6055H27.8242L25.4842 81.1055H19.1842C16.7092 81.1055 14.6842 83.1155 14.6842 85.6055C14.6842 88.0955 16.6942 90.1055 19.1842 90.1055H70.1842C72.6592 90.1055 74.6842 88.0955 74.6842 85.6055C74.6842 83.1155 72.6742 81.1055 70.1842 81.1055H63.8842L61.5442 70.6055H82.1992C86.3242 70.6055 89.6692 67.2605 89.6692 63.1355V7.57547C89.6692 3.45047 86.3242 0.105469 82.1992 0.105469H82.2292ZM7.16922 3.10547H82.2292C84.6892 3.10547 86.6992 5.11547 86.6992 7.57547V55.6055H2.69922V7.57547C2.69922 5.11547 4.70922 3.10547 7.16922 3.10547ZM71.6992 85.6055C71.6992 86.4305 71.0242 87.1055 70.1992 87.1055H19.1842C18.3592 87.1055 17.6842 86.4305 17.6842 85.6055C17.6842 84.7805 18.3592 84.1055 19.1842 84.1055H70.1842C71.0092 84.1055 71.6842 84.7805 71.6842 85.6055H71.6992ZM60.8242 81.1055H28.5592L30.8992 70.6055H58.4992L60.8392 81.1055H60.8242ZM82.2292 67.6055H7.16922C4.70922 67.6055 2.69922 65.5955 2.69922 63.1355V58.6055H86.6992V63.1355C86.6992 65.5955 84.6892 67.6055 82.2292 67.6055Z" fill="white"/>
<path d="M20.6686 49.6048H68.7136C71.1886 49.6048 73.1986 47.5948 73.1986 45.1198V15.0748C73.1986 12.5998 71.1886 10.5898 68.7136 10.5898H20.6686C18.1936 10.5898 16.1836 12.5998 16.1836 15.0748V45.1198C16.1836 47.5948 18.1936 49.6048 20.6686 49.6048ZM19.1836 15.0898C19.1836 14.2798 19.8436 13.6048 20.6686 13.6048H68.7136C69.5236 13.6048 70.1986 14.2648 70.1986 15.0898V45.1348C70.1986 45.9448 69.5386 46.6198 68.7136 46.6198H20.6686C19.8586 46.6198 19.1836 45.9598 19.1836 45.1348V15.0748V15.0898Z" fill="white"/>
<path d="M37.9048 37.38C38.1448 37.53 38.4148 37.605 38.6998 37.605C38.9248 37.605 39.1648 37.545 39.3748 37.44L51.3748 31.44C51.8848 31.185 52.1998 30.66 52.1998 30.105C52.1998 29.55 51.8848 29.025 51.3748 28.77L39.3748 22.77C38.9098 22.545 38.3548 22.56 37.9198 22.83C37.4848 23.1 37.2148 23.58 37.2148 24.105V36.105C37.2148 36.63 37.4848 37.11 37.9198 37.38H37.9048ZM40.1998 26.535L47.3398 30.105L40.1998 33.675V26.535Z" fill="white"/>
</g>
<defs>
<clipPath id="clip0_750_4096">
<rect width="90" height="90" fill="white"/>
</clipPath>
</defs>
</svg>
