<svg width="120" height="120" viewBox="0 0 120 120" fill="none" xmlns="http://www.w3.org/2000/svg">
<g clip-path="url(#clip0_750_4050)">
<path d="M114 91.6V68C114 62 109.6 57.2 104 56.2V54.6C108.2 52.6 111.4 48.4 111.8 43.6C114.2 42.8 116 40.6 116 38V35V34C116 27.2 111.8 21.4 105.8 19.2C106 18.8 106 18.4 106 18C106 13.6 102.4 10 98 10C93.6 10 90 13.6 90 18C90 18.4 90 18.8 90.2 19.2C84.2 21.6 80 27.4 80 34V35V38C80 40.6 81.8 42.8 84.2 43.6C84.8 48.4 87.8 52.6 92 54.6V56.2C88.2 56.8 85 59.2 83.2 62.6C80.8 61.6 78.4 60.8 76 60.2V54C76 48 71.6 43.2 66 42.2V40.6C70.2 38.6 73.4 34.4 73.8 29.6C76.2 28.8 78 26.6 78 24V21V14C78 6.2 71.8 0 64 0H56C48.2 0 42 6.2 42 14V21V24C42 26.6 43.8 28.8 46.2 29.6C46.8 34.4 49.8 38.6 54 40.6V42.2C48.4 43.2 44 48 44 54V60.2C41.6 60.8 39 61.8 36.8 62.6C35 59.2 31.8 56.8 28 56.2V54.6C32.2 52.6 35.4 48.4 35.8 43.6C38.2 42.8 40 40.6 40 38V35V34C40 27.2 35.8 21.4 29.8 19.2C30 18.8 30 18.4 30 18C30 13.6 26.4 10 22 10C17.6 10 14 13.6 14 18C14 18.4 14 18.8 14.2 19.2C8.2 21.4 4 27.2 4 34V35V38C4 40.6 5.8 42.8 8.2 43.6C8.8 48.4 11.8 52.6 16 54.6V56.2C10.4 57.2 6 62 6 68V91.6C2.4 99 0.4 107.2 0 115.8C0 116.8 0.4 117.8 1.2 118.6C1.8 119.6 3 120 4 120H116C117 120 118.2 119.6 119 118.8C119.8 118 120.2 117 120.2 116C119.6 107.2 117.6 99 114 91.6ZM94 18C94 15.8 95.8 14 98 14C100.2 14 102 15.8 102 18C102 18 102 18 102 18.2C101.4 18 100.6 18 100 18H96C95.4 18 94.6 18 94 18ZM96 22H100C105.2 22 109.6 25.4 111.4 30C111.2 30 111.2 30 111 30C109 30 107.4 31.2 106.6 32.8C101.4 31.8 99.2 29.6 98.4 28.2C97.4 26.6 95.8 26 94 26.4C91.6 27 89.2 28.8 87.8 30.8C86.8 30.2 86 30 85 30C84.8 30 84.8 30 84.6 30C86.4 25.4 90.8 22 96 22ZM88 42C88 40.8 87.2 40 86 40C84.8 40 84 39.2 84 38V35C84 34.4 84.4 34 85 34C85.6 34 86 34.4 86 35C86 36.2 86.8 37 88 37C89.2 37 90 36.2 90 35C90 33.8 92.2 30.8 94.8 30.2C96.2 32.4 99.6 36.2 107.8 37C108.4 37 109 36.8 109.4 36.4C109.8 36 110 35.4 110 35C110 34.4 110.4 34 111 34C111.6 34 112 34.4 112 35V38C112 39.2 111.2 40 110 40C108.8 40 108 40.8 108 42C108 47.6 103.6 52 98 52C92.4 52 88 47.6 88 42ZM98 56C98.6 56 99.4 56 100 55.8V58C100 58.6 99.8 59 99.4 59.4C99 59.8 98.6 60 98 60C96.8 60 96 59.2 96 58V55.8C96.6 56 97.4 56 98 56ZM92.4 60.2C93.2 62.4 95.4 64 98 64C99.6 64 101.2 63.4 102.2 62.2C102.8 61.6 103.2 60.8 103.6 60.2C107.2 61 110 64.2 110 68V84.6C104.2 76 96.2 69 87 64.2C88 62.2 90 60.6 92.4 60.2ZM36 67.2C36.2 67.2 36.2 67.2 36 67.2C36.2 67.2 36.4 67 36.4 67C39.6 65.6 43 64.4 46.4 63.6H46.6C50.2 62.8 54 62.2 57.8 62V92C52.2 92.4 47 94.6 42.8 98.2L21.8 77C26 73 30.8 69.8 36 67.2ZM60 96C62.4 96 64.8 96.4 67 97.2L63.8 104.6C62.6 104.2 61.4 104 60 104C53 104 47.2 109.2 46.2 116H38.2C39.2 104.8 48.6 96 60 96ZM60 108C64.8 108 68.8 111.4 69.8 116H50.2C51.2 111.4 55.2 108 60 108ZM67.4 106.2L70.6 98.8C76.8 102.2 81.2 108.6 81.8 116H73.8C73.2 111.8 70.8 108.4 67.4 106.2ZM77 98.2C75.6 97 74 96 72.4 95L77.8 82.6C78.2 81.6 77.8 80.4 76.8 80C75.8 79.6 74.6 80 74.2 81L68.8 93.4C66.6 92.6 64.4 92.2 62.2 92V62C66 62.2 69.8 62.6 73.4 63.6H73.6C77 64.4 80.4 65.6 83.6 67C83.8 67 83.8 67.2 84 67.2C89.2 69.6 94.2 73 98.4 76.8L77 98.2ZM56 4H64C69.6 4 74 8.4 74 14V16.2C73.6 16 73.4 16 73 16C72.2 16 71.2 16.2 70.6 16.6C69.4 15 67.8 14 65.8 13.6C63.8 13.2 62.2 12.8 61 12.2C60.4 12 59.8 12 59.2 12.2C58 12.8 56.4 13.2 54.4 13.6C52.6 13.8 51 14.8 50 16.2C49.8 16.4 49.8 16.4 49.6 16.6C48.8 16.2 47.8 16 47 16C46.6 16 46.4 16 46 16.2V14C46 8.4 50.4 4 56 4ZM50 28C50 26.8 49.2 26 48 26C46.8 26 46 25.2 46 24V21C46 20.4 46.4 20 47 20C47.6 20 48 20.4 48 21C48 22.2 48.8 23 50 23C51.2 23 52 22.2 52 21C52 20.2 52.2 19.4 52.8 18.8C53.4 18.2 54 17.8 54.8 17.6C56.8 17.2 58.6 16.8 60 16.2C61.4 16.8 63.2 17.2 65.2 17.6C66.8 17.8 68 19.4 68 21C68 22.2 68.8 23 70 23C71.2 23 72 22.2 72 21C72 20.4 72.4 20 73 20C73.6 20 74 20.4 74 21V24C74 25.2 73.2 26 72 26C70.8 26 70 26.8 70 28C70 33.6 65.6 38 60 38C54.4 38 50 33.6 50 28ZM60 42C60.6 42 61.4 42 62 41.8V44C62 45.2 61.2 46 60 46C59.4 46 59 45.8 58.6 45.4C58.2 45 58 44.6 58 44V41.8C58.6 42 59.4 42 60 42ZM48 54C48 50.2 50.8 46.8 54.4 46.2C54.6 47 55.2 47.6 55.8 48.2C57 49.4 58.4 50 60 50C62.6 50 64.8 48.4 65.6 46.2C69.2 47 72 50.2 72 54V59.2C68.2 58.4 64.2 58 60 58C55.8 58 51.8 58.4 48 59.2V54ZM18 18C18 15.8 19.8 14 22 14C24.2 14 26 15.8 26 18C26 18 26 18 26 18.2C25.4 18 24.6 18 24 18H20C19.4 18 18.6 18 18 18ZM20 22H24C29.2 22 33.6 25.4 35.4 30C35.2 30 35.2 30 35 30C34 30 33.2 30.2 32.4 30.8C30.8 28.8 28.6 27 26 26.4C24.4 26 22.6 26.6 21.6 28.2C20.8 29.6 18.4 32 13.4 33C12.6 31.2 11 30 9 30C8.8 30 8.8 30 8.6 30C10.4 25.4 14.8 22 20 22ZM12 42C12 40.8 11.2 40 10 40C8.8 40 8 39.2 8 38V35C8 34.4 8.4 34 9 34C9.6 34 10 34.4 10 35C10 35.6 10.2 36.2 10.6 36.4C11 36.8 11.6 37 12.2 37C20.2 36.2 23.8 32.4 25 30.2C27.8 31 30 33.8 30 35C30 36.2 30.8 37 32 37C33.2 37 34 36.2 34 35C34 34.4 34.4 34 35 34C35.6 34 36 34.4 36 35V38C36 39.2 35.2 40 34 40C32.8 40 32 40.8 32 42C32 47.6 27.6 52 22 52C16.4 52 12 47.6 12 42ZM22 56C22.6 56 23.4 56 24 55.8V58C24 59.2 23.2 60 22 60C21.4 60 21 59.8 20.6 59.4C20.2 59 20 58.6 20 58V55.8C20.6 56 21.4 56 22 56ZM10 68C10 64.2 12.8 60.8 16.4 60.2C16.6 61 17.2 61.6 17.8 62.2C18.8 63.4 20.4 64 22 64C24.6 64 26.8 62.4 27.6 60.2C30 60.6 32 62.2 33 64.4C23.8 69 15.8 76 10 84.6V68ZM4 116C4.2 107.8 6.2 100.2 9.6 93.2C9.8 93 9.8 92.8 9.8 92.6C12.2 87.8 15.2 83.4 18.8 79.6L40.2 101C36.8 105 34.4 110.2 34 115.8L4 116ZM85.8 116C85.4 110.4 83.2 105.2 79.6 101.2L101 79.8C104.6 83.6 107.6 88 110 92.8C110 93 110.2 93.2 110.2 93.2C113.6 100 115.6 107.8 115.8 115.8H85.8V116Z" fill="#008065"/>
</g>
<defs>
<clipPath id="clip0_750_4050">
<rect width="120" height="120" fill="white"/>
</clipPath>
</defs>
</svg>
