<svg width="120" height="120" viewBox="0 0 120 120" fill="none" xmlns="http://www.w3.org/2000/svg">
<g clip-path="url(#clip0_750_4016)">
<path d="M65.2381 53.3604C64.4981 53.3604 63.8181 53.7603 63.4781 54.4203L59.9981 60.9203L56.5181 54.4203C56.1781 53.7803 55.4981 53.3604 54.7581 53.3604C49.1581 53.3604 44.5781 57.9204 44.5781 63.5404V85.2403C44.5781 86.3403 45.4781 87.2403 46.5781 87.2403H49.1381L48.2581 117.66C48.2581 118.2 48.4381 118.72 48.8181 119.12C49.1981 119.5 49.7181 119.72 50.2581 119.72H56.3181C57.3181 119.72 58.1781 118.96 58.2981 117.96L60.0181 103.94L61.7381 117.96C61.8581 118.96 62.7181 119.72 63.7181 119.72H69.7781C70.3181 119.72 70.8381 119.5 71.2181 119.12C71.5981 118.74 71.7981 118.2 71.7781 117.66L70.8981 87.2403H73.4581C74.5581 87.2403 75.4581 86.3403 75.4581 85.2403V63.5404C75.4581 57.9404 70.8981 53.3604 65.2781 53.3604H65.2381ZM71.4181 83.2403H70.7381L70.3981 71.6604C70.3581 70.5604 69.3981 69.7204 68.3381 69.7204C67.2381 69.7604 66.3581 70.6803 66.3981 71.7803L67.6781 115.72H65.4581L62.0181 87.6204C61.8981 86.7004 61.1781 86.0203 60.2781 85.9203C60.2381 85.9203 60.2181 85.9003 60.1781 85.8803C60.1181 85.8803 60.0381 85.8803 59.9781 85.8803C59.8981 85.8803 59.8381 85.8603 59.7781 85.8803C59.7381 85.8803 59.7181 85.9003 59.6781 85.9203C58.7781 86.0203 58.0581 86.7004 57.9581 87.6204L54.5181 115.72H52.2981L53.5781 71.7803C53.6181 70.6803 52.7381 69.7604 51.6381 69.7204C50.6381 69.7204 49.6181 70.5604 49.5781 71.6604L49.2381 83.2403H48.5581V63.5404C48.5581 60.5204 50.7381 58.0004 53.5981 57.4804L57.0581 63.9203C57.3981 64.5603 58.0781 64.9804 58.8181 64.9804H61.1581C61.8981 64.9804 62.5781 64.5803 62.9181 63.9203L66.3781 57.4804C69.2381 58.0204 71.4181 60.5404 71.4181 63.5404V83.2403Z" fill="#008065"/>
<path d="M59.9998 53.9596C63.9598 53.9596 67.1598 50.7396 67.1598 46.7996C67.1598 42.8596 63.9398 39.6396 59.9998 39.6396C56.0598 39.6396 52.8398 42.8596 52.8398 46.7996C52.8398 50.7396 56.0598 53.9596 59.9998 53.9596ZM59.9998 43.6196C61.7398 43.6196 63.1598 45.0396 63.1598 46.7796C63.1598 48.5196 61.7398 49.9396 59.9998 49.9396C58.2598 49.9396 56.8398 48.5196 56.8398 46.7796C56.8398 45.0396 58.2598 43.6196 59.9998 43.6196Z" fill="#008065"/>
<path d="M59.4994 14.4603H59.5594C63.4794 14.4203 66.6194 11.2003 66.5794 7.30027C66.5394 3.40027 63.3594 0.280273 59.4794 0.280273H59.3994C57.4994 0.280273 55.7194 1.06027 54.3994 2.40027C53.0794 3.74027 52.3594 5.54027 52.3594 7.44027C52.3994 11.3403 55.5794 14.4803 59.4594 14.4803L59.4994 14.4603ZM57.2794 5.20027C57.8594 4.60027 58.6394 4.28027 59.4594 4.28027H59.4994C61.1994 4.28027 62.5794 5.64027 62.5994 7.34027C62.5994 9.04027 61.2394 10.4603 59.5394 10.4603H59.5194C57.8194 10.4603 56.4394 9.08027 56.4194 7.38027C56.4194 6.56027 56.7194 5.78027 57.2994 5.18027L57.2794 5.20027Z" fill="#008065"/>
<path d="M59.5781 16.0195H59.5581C58.4581 16.0195 57.5781 16.9395 57.5781 18.0395L57.7181 28.7795C57.7181 29.8795 58.6181 30.7595 59.7181 30.7595H59.7381C60.8381 30.7595 61.7181 29.8395 61.7181 28.7395L61.5781 17.9995C61.5781 16.8995 60.6781 16.0195 59.5781 16.0195Z" fill="#008065"/>
<path d="M102.22 57.8398L91.48 57.9798C90.38 57.9798 89.5 58.8998 89.5 59.9998C89.5 61.0998 90.4 61.9798 91.5 61.9798H91.52L102.26 61.8398C103.36 61.8398 104.24 60.9198 104.24 59.8198C104.24 58.7198 103.34 57.8398 102.24 57.8398H102.22Z" fill="#008065"/>
<path d="M112.841 52.6603C108.921 52.7003 105.781 55.9203 105.801 59.8203C105.841 63.7203 109.021 66.8603 112.901 66.8603H112.981C116.901 66.8203 120.041 63.6003 120.001 59.7003C119.961 55.7803 116.761 52.6403 112.841 52.6603ZM115.121 61.9202C114.541 62.5203 113.761 62.8403 112.941 62.8403H112.901C111.201 62.8403 109.821 61.4803 109.801 59.7803C109.801 58.0802 111.161 56.6603 112.861 56.6603H112.881C114.581 56.6603 115.961 58.0403 115.981 59.7403C115.981 60.5603 115.681 61.3403 115.101 61.9403L115.121 61.9202Z" fill="#008065"/>
<path d="M79.8996 40.1605C74.5596 34.8805 67.4996 31.9805 59.9996 31.9805H59.8396C52.2796 32.0205 45.1996 35.0005 39.8796 40.3805C34.5596 45.7605 31.6596 52.8805 31.6996 60.4405C31.7396 68.0005 34.7196 75.0805 40.0996 80.4005C40.4796 80.7805 40.9996 80.9805 41.4996 80.9805C41.9996 80.9805 42.5396 80.7805 42.9196 80.3805C43.6996 79.6005 43.6796 78.3205 42.9196 77.5605C38.2996 73.0005 35.7396 66.9005 35.7196 60.4205C35.6796 53.9405 38.1796 47.8205 42.7396 43.2005C47.2996 38.5805 53.3996 36.0205 59.8796 36.0005C66.4396 35.9605 72.4796 38.4605 77.0996 43.0205C81.7196 47.5805 84.2796 53.6805 84.2996 60.1605C84.3396 66.6405 81.8396 72.7605 77.2796 77.3805C76.4996 78.1605 76.5196 79.4405 77.2796 80.2005C78.0596 80.9805 79.3396 80.9805 80.0996 80.2005C85.4196 74.8205 88.3196 67.7005 88.2796 60.1405C88.2396 52.5805 85.2596 45.5005 79.8796 40.1805L79.8996 40.1605Z" fill="#008065"/>
<path d="M82.5017 20.4596C83.5817 21.0596 84.7817 21.3796 85.9817 21.3796C86.6217 21.3796 87.2617 21.2996 87.9017 21.1196C89.7217 20.6196 91.2417 19.4196 92.1817 17.7796C94.1017 14.3796 92.9017 10.0396 89.4817 8.11964C87.8217 7.17964 85.9017 6.95964 84.0817 7.45964C82.2617 7.95964 80.7417 9.15964 79.8017 10.7996C77.8817 14.1996 79.0817 18.5396 82.4817 20.4796L82.5017 20.4596ZM83.3017 12.7596C83.7017 12.0396 84.3617 11.5196 85.1617 11.2996C85.4417 11.2196 85.7217 11.1796 86.0017 11.1796C86.5217 11.1796 87.0417 11.3196 87.5217 11.5796C89.0017 12.4196 89.5417 14.3196 88.7017 15.7996C88.3017 16.5196 87.6217 17.0396 86.8417 17.2596C86.0417 17.4796 85.2017 17.3796 84.4817 16.9796C83.0017 16.1396 82.4617 14.2396 83.3017 12.7596Z" fill="#008065"/>
<path d="M74.501 34.6596C74.801 34.8396 75.141 34.9196 75.481 34.9196C76.181 34.9196 76.861 34.5596 77.221 33.8996L82.461 24.5196C83.001 23.5596 82.661 22.3396 81.701 21.7996C80.741 21.2596 79.521 21.5996 78.981 22.5596L73.741 31.9396C73.201 32.8996 73.541 34.1196 74.501 34.6596Z" fill="#008065"/>
<path d="M105.499 40.5995C106.719 40.5995 107.959 40.2795 109.099 39.6195C110.739 38.6595 111.899 37.1195 112.359 35.2795C112.839 33.4395 112.559 31.5395 111.599 29.8995C109.619 26.5395 105.259 25.3995 101.879 27.3995C98.4986 29.3995 97.3786 33.7595 99.3786 37.1195C100.699 39.3595 103.079 40.5995 105.499 40.5995ZM103.919 30.8395C104.419 30.5395 104.959 30.4195 105.499 30.4195C106.559 30.4195 107.599 30.9595 108.179 31.9395C108.599 32.6595 108.719 33.4795 108.519 34.2795C108.319 35.0795 107.799 35.7595 107.099 36.1795C105.639 37.0395 103.719 36.5595 102.859 35.0795C101.999 33.5995 102.479 31.6995 103.959 30.8395H103.919Z" fill="#008065"/>
<path d="M85.3583 45.4001C85.7383 46.0201 86.3983 46.3801 87.0783 46.3801C87.4183 46.3801 87.7783 46.3001 88.0983 46.1001L97.3383 40.6001C98.2783 40.0401 98.5983 38.8001 98.0383 37.8601C97.4783 36.9201 96.2583 36.6001 95.2983 37.1601L86.0583 42.6601C85.1183 43.2201 84.7983 44.4601 85.3583 45.4001Z" fill="#008065"/>
<path d="M97.7589 79.3403L88.3789 74.1003C87.4189 73.5603 86.1989 73.9003 85.6589 74.8603C85.1189 75.8203 85.4589 77.0403 86.4189 77.5803L95.7989 82.8203C96.0989 83.0003 96.4389 83.0803 96.7789 83.0803C97.4789 83.0803 98.1589 82.7203 98.5189 82.0603C99.0589 81.1003 98.7189 79.8803 97.7589 79.3403Z" fill="#008065"/>
<path d="M109.542 80.1597C107.882 79.2197 105.962 78.9997 104.142 79.4997C102.322 79.9997 100.802 81.1997 99.8618 82.8397C98.9218 84.4997 98.7018 86.3997 99.2018 88.2397C99.7018 90.0597 100.902 91.5797 102.542 92.5197C103.642 93.1397 104.842 93.4397 106.022 93.4397C108.502 93.4397 110.922 92.1397 112.222 89.8397C113.162 88.1797 113.382 86.2797 112.882 84.4397C112.382 82.6197 111.182 81.0997 109.542 80.1597ZM108.742 87.8597C107.902 89.3397 106.002 89.8797 104.522 89.0397C103.042 88.1997 102.502 86.2997 103.342 84.8197C103.902 83.8197 104.962 83.2397 106.042 83.2397C106.562 83.2397 107.082 83.3597 107.562 83.6397C108.282 84.0397 108.802 84.6997 109.022 85.4997C109.242 86.2997 109.142 87.1397 108.742 87.8597Z" fill="#008065"/>
<path d="M17.5005 57.8398H17.4805C16.3805 57.8398 15.5005 58.7198 15.4805 59.8198C15.4805 60.9198 16.3405 61.8398 17.4605 61.8398L28.2005 61.9798H28.2205C29.3205 61.9798 30.2005 61.0998 30.2205 59.9998C30.2205 58.8998 29.3605 57.9798 28.2405 57.9798L17.5005 57.8398Z" fill="#008065"/>
<path d="M6.81913 66.86C10.6991 66.86 13.8791 63.72 13.9191 59.84C13.9591 55.92 10.7991 52.7 6.87913 52.68C3.03913 52.58 -0.240874 55.8 -0.280874 59.72C-0.320874 63.64 2.83912 66.84 6.73912 66.88H6.81913V66.86ZM3.71913 59.74C3.71913 58.04 5.11913 56.66 6.81913 56.66H6.83913C8.53913 56.66 9.91912 58.08 9.91912 59.78C9.91912 61.48 8.51912 62.84 6.81913 62.84H6.77913C5.95913 62.84 5.17912 62.5 4.59912 61.92C4.01912 61.34 3.69913 60.54 3.71913 59.72V59.74Z" fill="#008065"/>
<path d="M31.8215 21.0996C32.4615 21.2796 33.1015 21.3596 33.7415 21.3596C34.9415 21.3596 36.1415 21.0396 37.2215 20.4396C40.6215 18.5196 41.8415 14.1796 39.9015 10.7596C38.9615 9.0996 37.4415 7.9196 35.6215 7.4196C33.8015 6.9196 31.8815 7.1396 30.2215 8.0796C28.5615 9.0196 27.3815 10.5396 26.8815 12.3596C26.3815 14.1796 26.6015 16.0996 27.5415 17.7596C28.4815 19.4196 30.0015 20.5996 31.8215 21.0996ZM32.2015 11.5596C32.6815 11.2996 33.2015 11.1596 33.7215 11.1596C34.0015 11.1596 34.2815 11.1996 34.5615 11.2796C35.3615 11.4996 36.0215 12.0196 36.4215 12.7396C37.2615 14.2196 36.7415 16.1196 35.2415 16.9596C34.5215 17.3796 33.6815 17.4796 32.8815 17.2396C32.0815 17.0196 31.4215 16.4996 31.0215 15.7796C30.1815 14.2996 30.7015 12.3996 32.2015 11.5596Z" fill="#008065"/>
<path d="M38.001 21.7801C37.041 22.3201 36.701 23.5401 37.241 24.5001L42.481 33.8801C42.841 34.5401 43.521 34.9001 44.221 34.9001C44.561 34.9001 44.881 34.8201 45.201 34.6401C46.161 34.1001 46.501 32.8801 45.961 31.9201L40.721 22.5401C40.181 21.5801 38.961 21.2201 38.001 21.7801Z" fill="#008065"/>
<path d="M10.6189 39.6201C11.7389 40.2801 12.9789 40.6001 14.2189 40.6001C16.6589 40.6001 19.0189 39.3601 20.3389 37.1201C21.2989 35.4801 21.5789 33.5801 21.0989 31.7401C20.6189 29.9001 19.4589 28.3601 17.8389 27.4001C16.1989 26.4401 14.2989 26.1601 12.4589 26.6401C10.6189 27.1201 9.07886 28.2801 8.11886 29.9001C7.15886 31.5401 6.87886 33.4401 7.35886 35.2801C7.83886 37.1201 8.99886 38.6601 10.6189 39.6201ZM11.5589 31.9401C12.1389 30.9601 13.1789 30.4201 14.2389 30.4201C14.7789 30.4201 15.3189 30.5601 15.7989 30.8401C17.2789 31.7001 17.7589 33.6201 16.8989 35.0801C16.0389 36.5601 14.1389 37.0401 12.6589 36.1801C11.9389 35.7601 11.4389 35.0801 11.2389 34.2801C11.0389 33.4801 11.1589 32.6401 11.5789 31.9401H11.5589Z" fill="#008065"/>
<path d="M22.3988 40.6196L31.6388 46.1196C31.9588 46.3196 32.3188 46.3996 32.6588 46.3996C33.3388 46.3996 33.9988 46.0596 34.3788 45.4196C34.9388 44.4796 34.6388 43.2396 33.6788 42.6796L24.4388 37.1796C23.4788 36.6196 22.2588 36.9396 21.6988 37.8796C21.1388 38.8196 21.4388 40.0596 22.3988 40.6196Z" fill="#008065"/>
<path d="M31.3185 74.1004L21.9385 79.3404C20.9785 79.8804 20.6385 81.1004 21.1785 82.0604C21.5385 82.7204 22.2185 83.0804 22.9185 83.0804C23.2585 83.0804 23.5785 83.0004 23.8985 82.8204L33.2785 77.5804C34.2385 77.0404 34.5785 75.8204 34.0385 74.8604C33.4985 73.9004 32.2785 73.5404 31.3185 74.1004Z" fill="#008065"/>
<path d="M10.1785 80.1602C8.51854 81.1002 7.33854 82.6202 6.83854 84.4402C6.33854 86.2602 6.55854 88.1802 7.49854 89.8402C8.79854 92.1402 11.2185 93.4402 13.6985 93.4402C14.8785 93.4402 16.0785 93.1402 17.1785 92.5202C18.8385 91.5802 20.0185 90.0602 20.5185 88.2402C21.0185 86.4202 20.7985 84.5002 19.8585 82.8402C17.9385 79.4402 13.5985 78.2202 10.1785 80.1602ZM16.6585 87.1802C16.4385 87.9802 15.9185 88.6402 15.1985 89.0402C13.7185 89.8802 11.8185 89.3602 10.9785 87.8602C10.5785 87.1402 10.4785 86.3002 10.6985 85.5002C10.9185 84.7002 11.4385 84.0402 12.1585 83.6402C12.6385 83.3602 13.1585 83.2402 13.6785 83.2402C14.7585 83.2402 15.8185 83.8002 16.3785 84.8202C16.7785 85.5402 16.8785 86.3802 16.6585 87.1802Z" fill="#008065"/>
</g>
<defs>
<clipPath id="clip0_750_4016">
<rect width="120" height="120" fill="white"/>
</clipPath>
</defs>
</svg>
