<svg width="90" height="90" viewBox="0 0 90 90" fill="none" xmlns="http://www.w3.org/2000/svg">
<g clip-path="url(#clip0_750_4100)">
<path d="M82.3933 0.105469H7.33328C3.20828 0.105469 -0.136719 3.45047 -0.136719 7.57547V63.1355C-0.136719 67.2605 3.20828 70.6055 7.33328 70.6055H28.0483L25.7083 81.1055H19.4083C16.9333 81.1055 14.9083 83.1155 14.9083 85.6055C14.9083 88.0955 16.9183 90.1055 19.4083 90.1055H70.4233C72.8983 90.1055 74.9233 88.0955 74.9233 85.6055C74.9233 83.1155 72.9133 81.1055 70.4233 81.1055H64.1233L61.7833 70.6055H82.3783C86.5033 70.6055 89.8483 67.2605 89.8483 63.1355V7.57547C89.8483 3.45047 86.5033 0.105469 82.3783 0.105469H82.3933ZM71.9233 85.6055C71.9233 86.4305 71.2483 87.1055 70.4233 87.1055H19.4083C18.5833 87.1055 17.9083 86.4305 17.9083 85.6055C17.9083 84.7805 18.5833 84.1055 19.4083 84.1055H70.4233C71.2483 84.1055 71.9233 84.7805 71.9233 85.6055ZM61.0483 81.1055H28.7833L31.1233 70.6055H58.7233L61.0633 81.1055H61.0483ZM86.8633 63.1205C86.8633 65.5805 84.8533 67.5905 82.3933 67.5905H7.33328C4.87328 67.5905 2.86328 65.5805 2.86328 63.1205V7.57547C2.86328 5.11547 4.87328 3.10547 7.33328 3.10547H82.3933C84.8533 3.10547 86.8633 5.11547 86.8633 7.57547V63.1355V63.1205Z" fill="white"/>
<path d="M80.9258 7.60547H8.92578C8.10078 7.60547 7.42578 8.28047 7.42578 9.10547V61.6055C7.42578 62.4305 8.10078 63.1055 8.92578 63.1055H19.3358C19.3358 63.1055 19.3808 63.1055 19.3958 63.1055H34.4108C34.4108 63.1055 34.4558 63.1055 34.4708 63.1055H55.2758C55.2758 63.1055 55.3658 63.1355 55.4108 63.1355H70.4258C70.4258 63.1355 70.5158 63.1055 70.5608 63.1055H80.9108C81.7358 63.1055 82.4108 62.4305 82.4108 61.6055V9.10547C82.4108 8.28047 81.7358 7.60547 80.9108 7.60547H80.9258ZM79.4258 34.6055H71.9258C71.9258 31.3505 70.1858 28.5005 67.5908 26.9255C69.3308 25.5605 70.4708 23.4605 70.4708 21.0755C70.4708 16.9505 67.1108 13.6055 63.0008 13.6055C58.8908 13.6055 55.5308 16.9655 55.5308 21.0755C55.5308 23.4305 56.6408 25.5005 58.3508 26.8655C55.7108 28.4405 53.9258 31.3205 53.9258 34.6055H46.6658V10.6055H79.4408V34.6055H79.4258ZM63.0008 25.5455C60.5258 25.5455 58.5308 23.5355 58.5308 21.0605C58.5308 18.5855 60.5408 16.5905 63.0008 16.5905C65.4608 16.5905 67.4708 18.6005 67.4708 21.0605C67.4708 23.5205 65.4608 25.5455 63.0008 25.5455ZM62.9108 28.5905C65.7008 28.5905 68.0558 30.5105 68.7308 33.1055H57.0908C57.7658 30.5105 60.1058 28.6055 62.9108 28.5905ZM43.6508 10.6055V34.6055H35.9258C35.9258 31.3655 34.1858 28.5155 31.5908 26.9405C33.3308 25.5755 34.4708 23.4755 34.4708 21.0905C34.4708 16.9655 31.1108 13.6205 27.0008 13.6205C22.8908 13.6205 19.5308 16.9805 19.5308 21.0905C19.5308 23.4455 20.6408 25.5155 22.3508 26.8805C19.7108 28.4555 17.9258 31.3205 17.9258 34.6055H10.4408V10.6055H43.6658H43.6508ZM27.0008 25.5605C24.5258 25.5605 22.5308 23.5505 22.5308 21.0755C22.5308 18.6005 24.5408 16.6055 27.0008 16.6055C29.4608 16.6055 31.4708 18.6155 31.4708 21.0755C31.4708 23.5355 29.4608 25.5605 27.0008 25.5605ZM26.9108 28.6055C29.7008 28.6055 32.0558 30.5255 32.7308 33.1055H21.0908C21.7508 30.5105 24.1058 28.6055 26.9108 28.6055ZM10.4108 37.6055H43.6358V60.1055H35.7608C35.3108 57.4955 33.7508 55.2755 31.5758 53.9405C33.3158 52.5755 34.4558 50.4755 34.4558 48.0905C34.4558 43.9655 31.0958 40.6205 26.9858 40.6205C22.8758 40.6205 19.5158 43.9805 19.5158 48.0905C19.5158 50.4455 20.6258 52.5155 22.3358 53.8805C20.1008 55.2005 18.4958 57.4655 18.0458 60.1055H10.4408V37.6055H10.4108ZM21.0758 60.1055C21.7508 57.5255 24.0908 55.6055 26.8808 55.6055C29.6708 55.6055 32.0258 57.5255 32.7008 60.1055H21.0758ZM26.9708 52.5605C24.4958 52.5605 22.5008 50.5505 22.5008 48.0755C22.5008 45.6005 24.5108 43.6055 26.9708 43.6055C29.4308 43.6055 31.4408 45.6155 31.4408 48.0755C31.4408 50.5355 29.4308 52.5605 26.9708 52.5605ZM63.0008 52.5605C60.5258 52.5605 58.5308 50.5505 58.5308 48.0905C58.5308 45.6305 60.5408 43.6055 63.0008 43.6055C65.4608 43.6055 67.4708 45.6155 67.4708 48.0905C67.4708 50.5655 65.4608 52.5605 63.0008 52.5605ZM62.9258 55.6205C65.7158 55.6205 68.0558 57.5255 68.7308 60.1055H57.1208C57.7958 57.5255 60.1508 55.6205 62.9258 55.6205ZM71.7908 60.1055C71.3408 57.4955 69.7808 55.2755 67.6058 53.9555C69.3458 52.5905 70.4858 50.4905 70.4858 48.1055C70.4858 43.9805 67.1258 40.6205 63.0158 40.6205C58.9058 40.6205 55.5458 43.9805 55.5458 48.1055C55.5458 50.4605 56.6558 52.5305 58.3658 53.8955C56.1458 55.2155 54.5408 57.4655 54.0758 60.1055H46.6658V37.6055H79.4408V60.1055H71.8208H71.7908Z" fill="white"/>
</g>
<defs>
<clipPath id="clip0_750_4100">
<rect width="90" height="90" fill="white"/>
</clipPath>
</defs>
</svg>
