<svg width="101" height="120" viewBox="0 0 101 120" fill="none" xmlns="http://www.w3.org/2000/svg">
<g clip-path="url(#clip0_750_3827)">
<path d="M98.88 6.86H93.04V2C93.04 0.9 92.14 0 91.04 0H2C0.9 0 0 0.9 0 2V112.14C0 113.24 0.9 114.14 2 114.14H6.86V118C6.86 119.1 7.76 120 8.86 120H98.88C99.98 120 100.88 119.1 100.88 118V8.86C100.88 7.76 99.98 6.86 98.88 6.86ZM89.04 30.52H32.52C17.48 30.52 5.14 18.8 4.1 4H89.04V30.52ZM16.92 30.52H4V17.6C6.98 23.04 11.48 27.52 16.92 30.52ZM4 34.52H89.04V110.14H4V34.52ZM96.88 116H10.86V114.14H91.04C92.14 114.14 93.04 113.24 93.04 112.14V10.86H96.88V116Z" fill="white"/>
<path d="M17.6406 43.8604H20.6406C21.7406 43.8604 22.6406 42.9604 22.6406 41.8604C22.6406 40.7604 21.7406 39.8604 20.6406 39.8604H17.6406C16.5406 39.8604 15.6406 40.7604 15.6406 41.8604C15.6406 42.9604 16.5406 43.8604 17.6406 43.8604Z" fill="white"/>
<path d="M9.28125 43.8604H12.0213C13.1213 43.8604 14.0213 42.9604 14.0213 41.8604C14.0213 40.7604 13.1213 39.8604 12.0213 39.8604H9.28125C8.18125 39.8604 7.28125 40.7604 7.28125 41.8604C7.28125 42.9604 8.18125 43.8604 9.28125 43.8604Z" fill="white"/>
<path d="M26.2383 43.8604H29.2383C30.3383 43.8604 31.2383 42.9604 31.2383 41.8604C31.2383 40.7604 30.3383 39.8604 29.2383 39.8604H26.2383C25.1383 39.8604 24.2383 40.7604 24.2383 41.8604C24.2383 42.9604 25.1383 43.8604 26.2383 43.8604Z" fill="white"/>
<path d="M83.8013 48.7002H9.28125C8.18125 48.7002 7.28125 49.6002 7.28125 50.7002C7.28125 51.8002 8.18125 52.7002 9.28125 52.7002H83.8013C84.9013 52.7002 85.8013 51.8002 85.8013 50.7002C85.8013 49.6002 84.9013 48.7002 83.8013 48.7002Z" fill="white"/>
<path d="M83.8013 57.54H9.28125C8.18125 57.54 7.28125 58.44 7.28125 59.54C7.28125 60.64 8.18125 61.54 9.28125 61.54H83.8013C84.9013 61.54 85.8013 60.64 85.8013 59.54C85.8013 58.44 84.9013 57.54 83.8013 57.54Z" fill="white"/>
<path d="M83.8013 66.4004H9.28125C8.18125 66.4004 7.28125 67.3004 7.28125 68.4004C7.28125 69.5004 8.18125 70.4004 9.28125 70.4004H83.8013C84.9013 70.4004 85.8013 69.5004 85.8013 68.4004C85.8013 67.3004 84.9013 66.4004 83.8013 66.4004Z" fill="white"/>
<path d="M83.8013 75.2402H9.28125C8.18125 75.2402 7.28125 76.1402 7.28125 77.2402C7.28125 78.3402 8.18125 79.2402 9.28125 79.2402H83.8013C84.9013 79.2402 85.8013 78.3402 85.8013 77.2402C85.8013 76.1402 84.9013 75.2402 83.8013 75.2402Z" fill="white"/>
<path d="M83.8013 84.0801H9.28125C8.18125 84.0801 7.28125 84.9801 7.28125 86.0801C7.28125 87.1801 8.18125 88.0801 9.28125 88.0801H83.8013C84.9013 88.0801 85.8013 87.1801 85.8013 86.0801C85.8013 84.9801 84.9013 84.0801 83.8013 84.0801Z" fill="white"/>
<path d="M83.8013 92.2402H9.28125C8.18125 92.2402 7.28125 93.1402 7.28125 94.2402C7.28125 95.3402 8.18125 96.2402 9.28125 96.2402H83.8013C84.9013 96.2402 85.8013 95.3402 85.8013 94.2402C85.8013 93.1402 84.9013 92.2402 83.8013 92.2402Z" fill="white"/>
<path d="M83.8013 100.38H9.28125C8.18125 100.38 7.28125 101.28 7.28125 102.38C7.28125 103.48 8.18125 104.38 9.28125 104.38H83.8013C84.9013 104.38 85.8013 103.48 85.8013 102.38C85.8013 101.28 84.9013 100.38 83.8013 100.38Z" fill="white"/>
</g>
<defs>
<clipPath id="clip0_750_3827">
<rect width="100.88" height="120" fill="white"/>
</clipPath>
</defs>
</svg>
