<svg width="67" height="120" viewBox="0 0 67 120" fill="none" xmlns="http://www.w3.org/2000/svg">
<g clip-path="url(#clip0_750_3862)">
<path d="M64.42 107.32H35.2V93.94C51.06 92.9 63.66 79.7 63.66 63.58V41.6C63.66 40.5 62.76 39.6 61.66 39.6C60.56 39.6 59.66 40.5 59.66 41.6V45.36H53.9V14.6C53.9 6.56 47.36 0 39.3 0H27.1C19.06 0 12.5 6.54 12.5 14.6V45.38H6.74V41.62C6.74 40.52 5.84 39.62 4.74 39.62C3.64 39.62 2.74 40.52 2.74 41.62V63.6C2.74 79.72 15.34 92.92 31.2 93.96V107.34H2C0.9 107.34 0 108.24 0 109.34V118.02C0 119.12 0.9 120.02 2 120.02H64.42C65.52 120.02 66.42 119.12 66.42 118.02V109.34C66.42 108.24 65.52 107.34 64.42 107.34V107.32ZM27.12 4H39.32C45.16 4 49.92 8.76 49.92 14.6V64.8C49.92 70.64 45.16 75.4 39.32 75.4H27.12C21.88 75.4 17.54 71.56 16.7 66.56H28.74C29.84 66.56 30.74 65.66 30.74 64.56C30.74 63.46 29.84 62.56 28.74 62.56H16.52V54.14H28.74C29.84 54.14 30.74 53.24 30.74 52.14C30.74 51.04 29.84 50.14 28.74 50.14H16.52V41.72H28.74C29.84 41.72 30.74 40.82 30.74 39.72C30.74 38.62 29.84 37.72 28.74 37.72H16.52V29.3H28.74C29.84 29.3 30.74 28.4 30.74 27.3C30.74 26.2 29.84 25.3 28.74 25.3H16.52V16.88H28.74C29.84 16.88 30.74 15.98 30.74 14.88C30.74 13.78 29.84 12.88 28.74 12.88H16.7C17.54 7.88 21.88 4.04 27.12 4.04V4ZM6.76 63.6V49.38H12.52V64.78C12.52 72.82 19.06 79.38 27.12 79.38H39.32C47.36 79.38 53.92 72.84 53.92 64.78V49.38H59.68V63.6C59.68 78.18 47.82 90.06 33.22 90.06C18.62 90.06 6.76 78.2 6.76 63.6ZM62.42 116H4V111.32H62.42V116Z" fill="#008065"/>
</g>
<defs>
<clipPath id="clip0_750_3862">
<rect width="66.42" height="120" fill="white"/>
</clipPath>
</defs>
</svg>
