<svg width="90" height="76" viewBox="0 0 90 76" fill="none" xmlns="http://www.w3.org/2000/svg">
<g clip-path="url(#clip0_750_3607)">
<path d="M4.57672 24.8543C4.57672 25.2143 4.71172 25.5593 4.96672 25.8293L9.25672 30.4643L8.50672 36.7343C8.46172 37.0943 8.56672 37.4543 8.76172 37.7543L8.64172 38.7893L9.57172 38.3543C9.70672 38.3993 9.85672 38.4143 9.99172 38.4143C10.2017 38.4143 10.4267 38.3693 10.6217 38.2793L16.3517 35.6243L22.0817 38.2793C22.4117 38.4293 22.7867 38.4443 23.1317 38.3543L24.0767 38.7893L23.9567 37.7543C24.1517 37.4543 24.2567 37.1093 24.2117 36.7343L23.4617 30.4643L27.7517 25.8293C28.0067 25.5593 28.1267 25.2143 28.1417 24.8543L28.8467 24.0893L27.8267 23.8943C27.6017 23.6093 27.3017 23.4143 26.9417 23.3393L20.7467 22.1093L17.6717 16.6043C17.5067 16.3043 17.2217 16.1093 16.9067 15.9893L16.3667 15.0293L15.8267 15.9893C15.5117 16.0943 15.2267 16.2893 15.0617 16.6043L11.9867 22.1093L5.79172 23.3393C5.43172 23.4143 5.13172 23.6093 4.90672 23.8943L3.88672 24.0893L4.59172 24.8543H4.57672ZM8.98672 25.7543L13.2317 24.9143C13.6667 24.8243 14.0417 24.5543 14.2517 24.1793L16.3667 20.3993L18.4817 24.1793C18.6917 24.5693 19.0667 24.8393 19.5017 24.9143L23.7467 25.7543L20.8067 28.9343C20.5067 29.2643 20.3717 29.6993 20.4167 30.1343L20.9267 34.4243L16.9967 32.6093C16.8017 32.5193 16.5767 32.4743 16.3667 32.4743C16.1567 32.4743 15.9317 32.5193 15.7367 32.6093L11.8067 34.4243L12.3167 30.1343C12.3617 29.6993 12.2267 29.2643 11.9267 28.9343L8.98672 25.7543Z" fill="white"/>
<path d="M61.8619 24.8543C61.8619 25.2143 61.9969 25.5593 62.2519 25.8293L66.5419 30.4643L65.7919 36.7343C65.7469 37.0943 65.8519 37.4543 66.0469 37.7543L65.9269 38.7893L66.8719 38.3543C67.2169 38.4593 67.5769 38.4443 67.9219 38.2793L73.6519 35.6243L79.3819 38.2793C79.5769 38.3693 79.8019 38.4143 80.0119 38.4143C80.1619 38.4143 80.2969 38.3843 80.4319 38.3543L81.3619 38.7893L81.2419 37.7543C81.4369 37.4543 81.5419 37.1093 81.4969 36.7343L80.7469 30.4643L85.0369 25.8293C85.2919 25.5593 85.4119 25.2143 85.4269 24.8543L86.1319 24.0893L85.1119 23.8943C84.8869 23.6093 84.5869 23.4143 84.2269 23.3393L78.0319 22.1093L74.9569 16.6043C74.7919 16.3043 74.5069 16.1093 74.1919 15.9893L73.6519 15.0293L73.1119 15.9893C72.7969 16.0943 72.5119 16.2893 72.3469 16.6043L69.2719 22.1093L63.0769 23.3393C62.7169 23.4143 62.4169 23.6093 62.1919 23.8943L61.1719 24.0893L61.8769 24.8543H61.8619ZM66.2719 25.7543L70.5169 24.9143C70.9519 24.8243 71.3269 24.5543 71.5369 24.1793L73.6519 20.3993L75.7669 24.1793C75.9769 24.5693 76.3519 24.8393 76.7869 24.9143L81.0319 25.7543L78.0919 28.9343C77.7919 29.2643 77.6569 29.6993 77.7019 30.1343L78.2119 34.4243L74.2819 32.6093C74.0869 32.5193 73.8619 32.4743 73.6519 32.4743C73.4419 32.4743 73.2169 32.5193 73.0219 32.6093L69.0919 34.4243L69.6019 30.1343C69.6469 29.6993 69.5119 29.2643 69.2119 28.9343L66.2719 25.7543Z" fill="white"/>
<path d="M31.785 10.89C31.785 11.25 31.92 11.595 32.175 11.865L37.14 17.22L36.27 24.465C36.225 24.825 36.33 25.185 36.525 25.485L36.405 26.52L37.35 26.085C37.695 26.19 38.055 26.175 38.4 26.01L45.03 22.95L51.66 26.01C51.855 26.1 52.08 26.145 52.29 26.145C52.44 26.145 52.575 26.115 52.71 26.085L53.64 26.52L53.52 25.485C53.715 25.185 53.82 24.84 53.775 24.465L52.905 17.22L57.87 11.865C58.125 11.595 58.245 11.25 58.26 10.89L58.965 10.125L57.945 9.93C57.72 9.645 57.42 9.45 57.06 9.375L49.905 7.95L46.35 1.575C46.185 1.275 45.9 1.08 45.585 0.96L45.045 0L44.505 0.96C44.19 1.065 43.905 1.26 43.74 1.575L40.185 7.95L33.03 9.375C32.67 9.45 32.37 9.645 32.145 9.93L31.125 10.125L31.83 10.89H31.785ZM36.195 11.79L41.4 10.755C41.835 10.665 42.21 10.395 42.42 10.02L45.015 5.385L47.61 10.02C47.82 10.41 48.195 10.68 48.63 10.755L53.835 11.79L50.235 15.69C49.935 16.02 49.8 16.455 49.845 16.89L50.475 22.155L45.66 19.935C45.465 19.845 45.24 19.8 45.03 19.8C44.82 19.8 44.595 19.845 44.4 19.935L39.585 22.155L40.215 16.89C40.26 16.455 40.125 16.02 39.825 15.69L36.225 11.79H36.195Z" fill="white"/>
<path d="M33.3145 64.8741C32.4895 64.8441 31.7695 65.4441 31.7245 66.2841L31.2445 73.9341C31.1995 74.7591 31.8145 75.4791 32.6545 75.5241C32.6845 75.5241 32.7145 75.5241 32.7445 75.5241C33.5245 75.5241 34.1845 74.9091 34.2445 74.1141L34.7245 66.4641C34.7695 65.6391 34.1545 64.9191 33.3145 64.8741Z" fill="white"/>
<path d="M56.7013 64.8753C55.8763 64.9353 55.2463 65.6403 55.2913 66.4653L55.7713 74.1153C55.8163 74.9103 56.4763 75.5253 57.2713 75.5253C57.3013 75.5253 57.3313 75.5253 57.3613 75.5253C58.1863 75.4653 58.8163 74.7603 58.7713 73.9353L58.2913 66.2853C58.2463 65.4603 57.5413 64.8603 56.7013 64.8753Z" fill="white"/>
<path d="M45.0167 29.8496C39.4967 29.8496 35.0117 34.3346 35.0117 39.8546C35.0117 45.3746 39.4967 49.8596 45.0167 49.8596C50.5367 49.8596 55.0217 45.3746 55.0217 39.8546C55.0217 34.3346 50.5367 29.8496 45.0167 29.8496ZM45.0167 46.8446C41.1617 46.8446 38.0117 43.7096 38.0117 39.8396C38.0117 35.9696 41.1467 32.8346 45.0167 32.8346C48.8867 32.8346 52.0217 35.9696 52.0217 39.8396C52.0217 43.7096 48.8867 46.8446 45.0167 46.8446Z" fill="white"/>
<path d="M89.2935 64.65C89.2785 63.345 88.8885 62.01 88.1235 60.705C87.3285 59.295 86.0085 58.215 84.4335 57.645L79.9035 56.025C79.2135 55.77 78.4335 56.07 78.0735 56.73L73.9785 64.335H73.2885L69.1935 56.73C68.8485 56.07 68.0535 55.785 67.3635 56.025L63.7485 57.33C63.6585 57.165 63.5985 57.015 63.5085 56.85C62.5185 55.11 60.8985 53.76 58.9185 53.055L53.0085 50.94C52.3035 50.685 51.5385 50.985 51.1785 51.645L45.7035 61.815H44.2485L38.7735 51.645C38.4285 50.985 37.6485 50.7 36.9435 50.94L31.0335 53.055C29.0685 53.76 27.4485 55.11 26.4585 56.85C26.3685 57 26.3085 57.165 26.2185 57.315L22.5735 56.025C21.8835 55.785 21.1035 56.07 20.7435 56.73L16.6485 64.335H15.9585L11.8635 56.73C11.5185 56.07 10.7385 55.77 10.0335 56.025L5.50351 57.645C3.92851 58.215 2.60851 59.31 1.81351 60.705C1.04851 62.025 0.658505 63.36 0.643506 64.665C0.568506 65.31 0.118505 69.69 -0.0614945 73.98C-0.0914945 74.805 0.553506 75.51 1.37851 75.54C1.39351 75.54 1.42351 75.54 1.43851 75.54C2.23351 75.54 2.90851 74.91 2.93851 74.1C3.11851 69.6 3.62851 64.965 3.62851 64.92C3.62851 64.86 3.62851 64.815 3.62851 64.755C3.62851 63.765 4.04851 62.82 4.40851 62.205C4.85851 61.41 5.60851 60.81 6.50851 60.48L9.82351 59.295L13.7235 66.555C13.9785 67.035 14.4885 67.35 15.0435 67.35H17.5335C18.0885 67.35 18.5985 67.05 18.8535 66.555L22.7535 59.295L25.1535 60.15C25.0335 60.72 24.9585 61.275 24.9435 61.83C24.8685 62.58 24.2535 68.34 24.0285 73.98C23.9985 74.805 24.6435 75.51 25.4685 75.54C26.3085 75.585 26.9985 74.925 27.0285 74.1C27.2685 68.205 27.9285 62.145 27.9435 62.085C27.9435 62.025 27.9435 61.98 27.9435 61.92C27.9435 60.525 28.5285 59.22 29.0235 58.365C29.6685 57.24 30.7335 56.37 32.0085 55.905L36.7035 54.225L41.9835 64.05C42.2385 64.53 42.7485 64.845 43.3035 64.845H46.5435C47.0985 64.845 47.6085 64.545 47.8635 64.05L53.1435 54.225L57.8235 55.905C59.1135 56.37 60.1785 57.255 60.8235 58.38C61.3185 59.22 61.8885 60.525 61.8885 61.935C61.8885 61.995 61.8885 62.04 61.8885 62.1C61.8885 62.16 62.5635 68.22 62.8035 74.115C62.8335 74.925 63.4935 75.555 64.3035 75.555C64.3185 75.555 64.3485 75.555 64.3635 75.555C65.1885 75.525 65.8335 74.82 65.8035 73.995C65.5785 68.355 64.9635 62.58 64.8885 61.845C64.8885 61.29 64.7985 60.735 64.6935 60.18L67.0785 59.31L70.9785 66.57C71.2335 67.05 71.7435 67.365 72.2985 67.365H74.7885C75.3435 67.365 75.8535 67.065 76.1085 66.57L80.0085 59.31L83.3085 60.495C84.2235 60.825 84.9585 61.44 85.4235 62.235C85.7835 62.85 86.2035 63.78 86.2035 64.785C86.2035 64.845 86.2035 64.89 86.2035 64.95C86.2035 64.995 86.7135 69.63 86.8935 74.13C86.9235 74.94 87.5835 75.57 88.3935 75.57C88.4085 75.57 88.4385 75.57 88.4535 75.57C89.2785 75.54 89.9235 74.835 89.8935 74.01C89.7285 69.72 89.2635 65.34 89.1885 64.695L89.2935 64.65Z" fill="white"/>
<path d="M82.5763 66.6593C81.7513 66.7193 81.1213 67.4243 81.1663 68.2493L81.5413 74.1143C81.5863 74.9093 82.2463 75.5243 83.0413 75.5243C83.0713 75.5243 83.1013 75.5243 83.1313 75.5243C83.9563 75.4643 84.5863 74.7593 84.5413 73.9343L84.1663 68.0693C84.1213 67.2443 83.4163 66.6293 82.5763 66.6593Z" fill="white"/>
<path d="M73.6506 39.8555C69.2406 39.8555 65.6406 43.4405 65.6406 47.8655C65.6406 52.2905 69.2256 55.8755 73.6506 55.8755C78.0756 55.8755 81.6606 52.2905 81.6606 47.8655C81.6606 43.4405 78.0756 39.8555 73.6506 39.8555ZM73.6506 52.8605C70.8906 52.8605 68.6406 50.6105 68.6406 47.8505C68.6406 45.0905 70.8906 42.8405 73.6506 42.8405C76.4106 42.8405 78.6606 45.0905 78.6606 47.8505C78.6606 50.6105 76.4106 52.8605 73.6506 52.8605Z" fill="white"/>
<path d="M7.42435 66.6593C6.58435 66.6293 5.87935 67.2293 5.83435 68.0693L5.45935 73.9343C5.41435 74.7593 6.02935 75.4793 6.86935 75.5243C6.89935 75.5243 6.92935 75.5243 6.95935 75.5243C7.73935 75.5243 8.39935 74.9093 8.45935 74.1143L8.83435 68.2493C8.87935 67.4243 8.26435 66.7043 7.42435 66.6593Z" fill="white"/>
<path d="M16.3498 39.8555C11.9398 39.8555 8.33984 43.4405 8.33984 47.8655C8.33984 52.2905 11.9248 55.8755 16.3498 55.8755C20.7748 55.8755 24.3598 52.2905 24.3598 47.8655C24.3598 43.4405 20.7748 39.8555 16.3498 39.8555ZM16.3498 52.8605C13.5898 52.8605 11.3398 50.6105 11.3398 47.8505C11.3398 45.0905 13.5898 42.8405 16.3498 42.8405C19.1098 42.8405 21.3598 45.0905 21.3598 47.8505C21.3598 50.6105 19.1098 52.8605 16.3498 52.8605Z" fill="white"/>
</g>
<defs>
<clipPath id="clip0_750_3607">
<rect width="90" height="75.525" fill="white"/>
</clipPath>
</defs>
</svg>
