<svg width="120" height="120" viewBox="0 0 120 120" fill="none" xmlns="http://www.w3.org/2000/svg">
<g clip-path="url(#clip0_750_3839)">
<path d="M112 0H8C3.58 0 0 3.58 0 8V112C0 116.42 3.58 120 8 120H112C116.42 120 120 116.42 120 112V8C120 3.58 116.42 0 112 0ZM8 4H112C114.2 4 116 5.8 116 8V16H4V8C4 5.8 5.8 4 8 4ZM112 116H8C5.8 116 4 114.2 4 112V20H116V112C116 114.2 114.2 116 112 116Z" fill="#008065"/>
<path d="M58 28H16C11.58 28 8 31.58 8 36V100C8 104.42 11.58 108 16 108H56C58.2 108 60 106.2 60 104V95.44C61.18 94.74 62 93.48 62 92V32C62 29.8 60.2 28 58 28ZM16 32H58V92H16C14.54 92 13.18 92.42 12 93.12V36C12 33.8 13.8 32 16 32ZM56 104H16C13.8 104 12 102.2 12 100C12 97.8 13.8 96 16 96H56V104Z" fill="#008065"/>
<path d="M104 28H74C70.7 28 68 30.7 68 34V54C68 57.3 70.7 60 74 60H104C107.3 60 110 57.3 110 54V34C110 30.7 107.3 28 104 28ZM106 54C106 55.1 105.1 56 104 56H74C72.9 56 72 55.1 72 54V34C72 32.9 72.9 32 74 32H104C105.1 32 106 32.9 106 34V54Z" fill="#008065"/>
<path d="M93.96 40.1602L88.64 36.7002C87.32 35.8402 85.72 35.7802 84.34 36.5202C82.9 37.3002 82 38.8402 82 40.5402V47.4602C82 49.1602 82.9 50.7002 84.34 51.4802C84.98 51.8202 85.66 52.0002 86.34 52.0002C87.14 52.0002 87.92 51.7602 88.64 51.3002L93.96 47.8402C95.24 47.0002 96 45.5602 96 43.9802C96 42.4002 95.24 40.9602 93.96 40.1402V40.1602ZM91.78 44.5002L86.46 47.9602C86.38 48.0002 86.34 48.0202 86.26 47.9602C86.2 47.9202 86.02 47.8002 86.02 47.4602V40.5402C86.02 40.2002 86.2 40.0602 86.26 40.0402C86.3 40.0402 86.32 40.0202 86.36 40.0202C86.4 40.0202 86.44 40.0202 86.48 40.0602L91.8 43.5202C92.02 43.6602 92.02 43.9402 92.02 44.0202C92.02 44.1002 92.02 44.3802 91.8 44.5202L91.78 44.5002Z" fill="#008065"/>
<path d="M22 62H48C50.2 62 52 60.2 52 58V46C52 43.8 50.2 42 48 42H22C19.8 42 18 43.8 18 46V58C18 60.2 19.8 62 22 62ZM22 46H48V58H22V46Z" fill="#008065"/>
<path d="M10 12H12C13.1 12 14 11.1 14 10C14 8.9 13.1 8 12 8H10C8.9 8 8 8.9 8 10C8 11.1 8.9 12 10 12Z" fill="#008065"/>
<path d="M20 12H22C23.1 12 24 11.1 24 10C24 8.9 23.1 8 22 8H20C18.9 8 18 8.9 18 10C18 11.1 18.9 12 20 12Z" fill="#008065"/>
<path d="M30 12H32C33.1 12 34 11.1 34 10C34 8.9 33.1 8 32 8H30C28.9 8 28 8.9 28 10C28 11.1 28.9 12 30 12Z" fill="#008065"/>
<path d="M98 12H110C111.1 12 112 11.1 112 10C112 8.9 111.1 8 110 8H98C96.9 8 96 8.9 96 10C96 11.1 96.9 12 98 12Z" fill="#008065"/>
<path d="M108 68H70C68.9 68 68 68.9 68 70C68 71.1 68.9 72 70 72H108C109.1 72 110 71.1 110 70C110 68.9 109.1 68 108 68Z" fill="#008065"/>
<path d="M108 80H70C68.9 80 68 80.9 68 82C68 83.1 68.9 84 70 84H108C109.1 84 110 83.1 110 82C110 80.9 109.1 80 108 80Z" fill="#008065"/>
<path d="M108 92H70C68.9 92 68 92.9 68 94C68 95.1 68.9 96 70 96H108C109.1 96 110 95.1 110 94C110 92.9 109.1 92 108 92Z" fill="#008065"/>
<path d="M102 104H70C68.9 104 68 104.9 68 106C68 107.1 68.9 108 70 108H102C103.1 108 104 107.1 104 106C104 104.9 103.1 104 102 104Z" fill="#008065"/>
</g>
<defs>
<clipPath id="clip0_750_3839">
<rect width="120" height="120" fill="white"/>
</clipPath>
</defs>
</svg>
