<svg width="120" height="120" viewBox="0 0 120 120" fill="none" xmlns="http://www.w3.org/2000/svg">
<g clip-path="url(#clip0_750_3853)">
<path d="M110.04 0H9.96C4.46 0 0 4.46 0 9.96V84.04C0 89.54 4.46 94 9.96 94H37.5L34.38 108H25.98C22.68 108 19.98 110.68 19.98 114C19.98 117.32 22.66 120 25.98 120H93.98C97.28 120 99.98 117.32 99.98 114C99.98 110.68 97.3 108 93.98 108H85.58L82.46 94H110C115.5 94 119.96 89.54 119.96 84.04V9.96C119.96 4.46 115.5 0 110 0H110.04ZM9.96 4H110.04C113.32 4 116 6.68 116 9.96V74H4V9.96C4 6.68 6.68 4 9.96 4ZM96 114C96 115.1 95.1 116 94 116H26C24.9 116 24 115.1 24 114C24 112.9 24.9 112 26 112H94C95.1 112 96 112.9 96 114ZM81.5 108H38.48L41.6 94H78.4L81.52 108H81.5ZM110.04 90H9.96C6.68 90 4 87.32 4 84.04V78H116V84.04C116 87.32 113.32 90 110.04 90Z" fill="#008065"/>
<path d="M8 72H112C113.1 72 114 71.1 114 70V9.96C114 7.78 112.22 6 110.04 6H9.96C7.78 6 6 7.78 6 9.96V70C6 71.1 6.9 72 8 72ZM10 68L9.96 17.9H110V68H10ZM110 10V13.88H9.96V10H110Z" fill="#008065"/>
<path d="M53.06 25.9004H16C14.9 25.9004 14 26.8004 14 27.9004V64.0004C14 65.1004 14.9 66.0004 16 66.0004H53.06C54.16 66.0004 55.06 65.1004 55.06 64.0004V27.9004C55.06 26.8004 54.16 25.9004 53.06 25.9004ZM51.06 62.0004H18V29.9004H51.06V62.0004Z" fill="#008065"/>
<path d="M103.998 25.9004H85.5781C84.4781 25.9004 83.5781 26.8004 83.5781 27.9004V42.9004C83.5781 44.0004 84.4781 44.9004 85.5781 44.9004H103.998C105.098 44.9004 105.998 44.0004 105.998 42.9004V27.9004C105.998 26.8004 105.098 25.9004 103.998 25.9004ZM101.998 40.9004H87.5781V29.9004H101.998V40.9004Z" fill="#008065"/>
<path d="M79.4981 25.9004H61.0781C59.9781 25.9004 59.0781 26.8004 59.0781 27.9004V42.9004C59.0781 44.0004 59.9781 44.9004 61.0781 44.9004H79.4981C80.5981 44.9004 81.4981 44.0004 81.4981 42.9004V27.9004C81.4981 26.8004 80.5981 25.9004 79.4981 25.9004ZM77.4981 40.9004H63.0781V29.9004H77.4981V40.9004Z" fill="#008065"/>
<path d="M103.998 46.9805H85.5781C84.4781 46.9805 83.5781 47.8805 83.5781 48.9805V63.9805C83.5781 65.0805 84.4781 65.9805 85.5781 65.9805H103.998C105.098 65.9805 105.998 65.0805 105.998 63.9805V48.9805C105.998 47.8805 105.098 46.9805 103.998 46.9805ZM101.998 61.9805H87.5781V50.9805H101.998V61.9805Z" fill="#008065"/>
<path d="M79.4981 46.9805H61.0781C59.9781 46.9805 59.0781 47.8805 59.0781 48.9805V63.9805C59.0781 65.0805 59.9781 65.9805 61.0781 65.9805H79.4981C80.5981 65.9805 81.4981 65.0805 81.4981 63.9805V48.9805C81.4981 47.8805 80.5981 46.9805 79.4981 46.9805ZM77.4981 61.9805H63.0781V50.9805H77.4981V61.9805Z" fill="#008065"/>
<path d="M16 23.8799H70.28C71.38 23.8799 72.28 22.9799 72.28 21.8799C72.28 20.7799 71.38 19.8799 70.28 19.8799H16C14.9 19.8799 14 20.7799 14 21.8799C14 22.9799 14.9 23.8799 16 23.8799Z" fill="#008065"/>
</g>
<defs>
<clipPath id="clip0_750_3853">
<rect width="120" height="120" fill="white"/>
</clipPath>
</defs>
</svg>
