<svg width="71" height="90" viewBox="0 0 71 90" fill="none" xmlns="http://www.w3.org/2000/svg">
<g clip-path="url(#clip0_750_3864)">
<path d="M24.5391 50.1741C24.5391 56.0391 29.3091 60.7941 35.1741 60.7941C41.0391 60.7941 45.8091 56.0241 45.8091 50.1741C45.8091 44.3241 41.0391 39.5391 35.1741 39.5391C29.3091 39.5391 24.5391 44.3091 24.5391 50.1741ZM35.1741 42.5391C39.3741 42.5391 42.8091 45.9591 42.8091 50.1741C42.8091 54.3891 39.3891 57.7941 35.1741 57.7941C30.9591 57.7941 27.5391 54.3741 27.5391 50.1741C27.5391 45.9741 30.9591 42.5391 35.1741 42.5391Z" fill="#008065"/>
<path d="M36.7812 35.3849V26.6699C36.7812 25.8449 36.1063 25.1699 35.2812 25.1699C34.4562 25.1699 33.7812 25.8449 33.7812 26.6699V35.3849C33.7812 36.2099 34.4562 36.8849 35.2812 36.8849C36.1063 36.8849 36.7812 36.2099 36.7812 35.3849Z" fill="#008065"/>
<path d="M17.9233 50.3842C18.3133 50.3842 18.6883 50.2342 18.9883 49.9492C19.5733 49.3642 19.5733 48.4192 18.9883 47.8342L12.8233 41.6692C12.2383 41.0842 11.2933 41.0842 10.7083 41.6692C10.1233 42.2542 10.1233 43.1992 10.7083 43.7842L16.8733 49.9492C17.1733 50.2492 17.5483 50.3842 17.9383 50.3842H17.9233Z" fill="#008065"/>
<path d="M57.7483 41.6555L51.5833 47.8205C50.9983 48.4055 50.9983 49.3505 51.5833 49.9355C51.8833 50.2355 52.2583 50.3705 52.6483 50.3705C53.0383 50.3705 53.4133 50.2205 53.7133 49.9355L59.8783 43.7705C60.4633 43.1855 60.4633 42.2405 59.8783 41.6555C59.2933 41.0705 58.3483 41.0705 57.7633 41.6555H57.7483Z" fill="#008065"/>
<path d="M11.0867 28.9645C15.0617 28.9645 18.2867 25.7395 18.2867 21.7645C18.2867 17.7895 15.0617 14.5645 11.0867 14.5645C7.11172 14.5645 3.88672 17.7895 3.88672 21.7645C3.88672 25.7395 7.11172 28.9645 11.0867 28.9645ZM11.0867 17.5645C13.3967 17.5645 15.2867 19.4545 15.2867 21.7645C15.2867 24.0745 13.3967 25.9645 11.0867 25.9645C8.77672 25.9645 6.88672 24.0895 6.88672 21.7645C6.88672 19.4395 8.77672 17.5645 11.0867 17.5645Z" fill="#008065"/>
<path d="M12.075 34.905L15 32.31C16.65 32.88 19.17 34.23 19.17 37.26C19.17 38.085 19.845 38.76 20.67 38.76C21.495 38.76 22.17 38.085 22.17 37.26C22.17 33.345 19.485 30.33 15 29.19C14.52 29.07 14.01 29.19 13.635 29.52L11.085 31.785L8.535 29.52C8.16 29.19 7.65 29.07 7.17 29.19C2.685 30.33 0 33.345 0 37.26C0 38.085 0.675 38.76 1.5 38.76C2.325 38.76 3 38.085 3 37.26C3 34.23 5.52 32.88 7.17 32.31L10.095 34.905C10.665 35.4 11.52 35.415 12.09 34.905H12.075Z" fill="#008065"/>
<path d="M35.2781 14.4C39.2531 14.4 42.4781 11.175 42.4781 7.2C42.4781 3.225 39.2531 0 35.2781 0C31.3031 0 28.0781 3.225 28.0781 7.2C28.0781 11.175 31.3031 14.4 35.2781 14.4ZM35.2781 3C37.5881 3 39.4781 4.89 39.4781 7.2C39.4781 9.51 37.5881 11.4 35.2781 11.4C32.9681 11.4 31.0781 9.525 31.0781 7.2C31.0781 4.875 32.9681 3 35.2781 3Z" fill="#008065"/>
<path d="M25.7116 24.1956C26.5366 24.1956 27.2116 23.5206 27.2116 22.6956C27.2116 19.6656 29.7316 18.3156 31.3816 17.7456L34.3066 20.3406C34.8766 20.8506 35.7316 20.8356 36.3016 20.3406L39.2266 17.7456C40.8766 18.3156 43.3966 19.6656 43.3966 22.6956C43.3966 23.5206 44.0716 24.1956 44.8966 24.1956C45.7216 24.1956 46.3966 23.5206 46.3966 22.6956C46.3966 18.7806 43.7116 15.7656 39.2266 14.6256C38.7466 14.5056 38.2366 14.6256 37.8616 14.9556L35.3116 17.2206L32.7616 14.9556C32.3866 14.6256 31.8766 14.5056 31.3966 14.6256C26.9116 15.7656 24.2266 18.7806 24.2266 22.6956C24.2266 23.5206 24.9016 24.1956 25.7266 24.1956H25.7116Z" fill="#008065"/>
<path d="M59.4891 28.9645C63.4641 28.9645 66.6891 25.7395 66.6891 21.7645C66.6891 17.7895 63.4641 14.5645 59.4891 14.5645C55.5141 14.5645 52.2891 17.7895 52.2891 21.7645C52.2891 25.7395 55.5141 28.9645 59.4891 28.9645ZM59.4891 17.5645C61.7991 17.5645 63.6891 19.4545 63.6891 21.7645C63.6891 24.0745 61.7991 25.9645 59.4891 25.9645C57.1791 25.9645 55.2891 24.0895 55.2891 21.7645C55.2891 19.4395 57.1791 17.5645 59.4891 17.5645Z" fill="#008065"/>
<path d="M63.4062 29.19C62.9263 29.07 62.4163 29.19 62.0413 29.52L59.4912 31.785L56.9412 29.52C56.5662 29.19 56.0562 29.07 55.5762 29.19C51.0912 30.33 48.4062 33.345 48.4062 37.26C48.4062 38.085 49.0812 38.76 49.9062 38.76C50.7313 38.76 51.4062 38.085 51.4062 37.26C51.4062 34.23 53.9262 32.88 55.5762 32.31L58.5012 34.905C59.0712 35.4 59.9263 35.4 60.4963 34.905L63.4212 32.31C65.0712 32.88 67.5913 34.23 67.5913 37.26C67.5913 38.085 68.2663 38.76 69.0913 38.76C69.9163 38.76 70.5913 38.085 70.5913 37.26C70.5913 33.345 67.9062 30.33 63.4212 29.19H63.4062Z" fill="#008065"/>
<path d="M55.3781 77.9109H48.2231V72.9159C48.2231 71.7009 47.2331 70.7109 46.0181 70.7109H24.3131C23.0981 70.7109 22.1081 71.7009 22.1081 72.9159V77.9109H14.9531C14.1281 77.9109 13.4531 78.5859 13.4531 79.4109C13.4531 80.2359 14.1281 80.9109 14.9531 80.9109H22.1081V84.6159C21.7031 84.5409 21.2681 84.6159 20.9231 84.9009C20.2781 85.4109 20.1581 86.3559 20.6681 87.0009L22.2881 89.0559C22.9181 90.0309 23.8481 90.0009 24.3131 89.9859H46.1231C46.1231 89.9859 46.2581 89.9859 46.3481 89.9859C46.5881 89.9859 46.9181 89.9559 47.2781 89.8059C47.2931 89.8059 47.3081 89.7909 47.3381 89.7759C47.6381 89.6409 47.9531 89.4309 48.2231 89.0559L49.8131 86.9709C50.3231 86.3109 50.1881 85.3659 49.5431 84.8709C49.1381 84.5709 48.6581 84.5109 48.2081 84.6459V80.8959H55.3631C56.1881 80.8959 56.8631 80.2209 56.8631 79.3959C56.8631 78.5709 56.1881 77.8959 55.3631 77.8959L55.3781 77.9109ZM25.1231 73.7109H45.2231V86.9859H25.1231V73.7109Z" fill="#008065"/>
<path d="M35.1016 81.8242H35.4616C36.2866 81.8242 36.9616 81.1492 36.9616 80.3242C36.9616 79.4992 36.2866 78.8242 35.4616 78.8242H35.1016C34.2766 78.8242 33.6016 79.4992 33.6016 80.3242C33.6016 81.1492 34.2766 81.8242 35.1016 81.8242Z" fill="#008065"/>
<path d="M50.7742 77.5655C51.5992 77.5655 52.2742 76.8905 52.2742 76.0655V74.2805C52.2742 67.7105 48.4492 63.2405 41.4892 61.6805C41.0692 61.5905 40.6192 61.6805 40.2742 61.9355L35.1742 65.6855L30.0742 61.9355C29.7292 61.6805 29.2792 61.5905 28.8592 61.6805C21.8992 63.2405 18.0742 67.7105 18.0742 74.2805V76.1105C18.0742 76.9355 18.7492 77.6105 19.5742 77.6105C20.3992 77.6105 21.0742 76.9355 21.0742 76.1105V74.2805C21.0742 69.3305 23.6992 66.1355 28.8592 64.7705L34.2892 68.7605C34.8142 69.1505 35.5342 69.1505 36.0592 68.7605L41.4892 64.7705C46.6642 66.1355 49.2742 69.3305 49.2742 74.2805V76.0655C49.2742 76.8905 49.9492 77.5655 50.7742 77.5655Z" fill="#008065"/>
</g>
<defs>
<clipPath id="clip0_750_3864">
<rect width="70.575" height="90" fill="white"/>
</clipPath>
</defs>
</svg>
