<svg width="90" height="90" viewBox="0 0 90 90" fill="none" xmlns="http://www.w3.org/2000/svg">
<g clip-path="url(#clip0_750_3585)">
<path d="M80.6024 59.7964L74.7359 58.3947V56.334C77.9762 54.4198 80.1557 50.8925 80.1557 46.864V39.0861C80.1557 33.0247 75.2242 28.0933 69.1627 28.0933H67.947C64.7107 28.0933 61.7973 29.4997 59.7839 31.7327C57.8339 25.4212 51.9449 20.8223 45.0015 20.8223C38.0582 20.8223 32.1691 25.4209 30.2192 31.7327C28.2058 29.4997 25.2924 28.0933 22.0561 28.0933H20.8404C14.7789 28.0933 9.84715 33.0247 9.84715 39.0861V46.864C9.84715 50.8923 12.0267 54.4198 15.267 56.334V58.3947L9.40049 59.7964C3.86794 61.1183 0.00390625 66.014 0.00390625 71.7021V76.9935C0.00390625 77.9641 0.791056 78.7511 1.76155 78.7511H15.958C15.8691 79.444 15.8232 80.1494 15.8232 80.864V86.4851H5.277C4.30634 86.4851 3.51936 87.2723 3.51936 88.2428C3.51936 89.2134 4.30651 90.0004 5.277 90.0004H84.7257C85.6964 90.0004 86.4833 89.2133 86.4833 88.2428C86.4833 87.2721 85.6962 86.4851 84.7257 86.4851H74.1795V80.8724C74.1795 80.1547 74.1333 79.4467 74.0436 78.7513H88.2412C89.2118 78.7513 89.9988 77.9641 89.9988 76.9936V71.7023C89.999 66.014 86.1348 61.1181 80.6024 59.7964ZM60.4696 39.0861C60.4694 34.963 63.8239 31.6086 67.9472 31.6086H69.1629C73.2862 31.6086 76.6406 34.963 76.6406 39.0861V39.5369C74.1041 39.5059 71.6444 38.7585 69.5176 37.3668C68.933 36.984 68.1773 36.984 67.5928 37.3668C65.466 38.7587 63.0063 39.5061 60.4698 39.5369V39.0861H60.4696ZM60.4694 45.4303V43.0527C63.3153 43.0252 66.086 42.2841 68.5549 40.8935C71.0237 42.2843 73.7944 43.0252 76.6403 43.0527V46.8641C76.6403 50.9874 73.2858 54.3419 69.1625 54.3419H67.9468C63.8235 54.3419 60.4691 50.9874 60.4691 46.8641V45.4303H60.4694ZM63.8406 65.662C63.1264 65.381 62.3865 65.1442 61.6213 64.9614L56.035 63.6267C56.4495 63.4563 56.8779 63.3164 57.318 63.2109L62.8704 61.8803L63.8406 65.662ZM62.3855 56.3409V58.3817L56.4987 59.7923C55.2259 60.0973 54.02 60.6015 52.9201 61.2814V58.7125C55.3294 57.2706 57.3156 55.1925 58.645 52.7117C59.5835 54.1993 60.8678 55.4468 62.3855 56.3409ZM56.9542 45.4303C56.9542 52.0209 51.5923 57.3827 45.0017 57.3827C38.4111 57.3827 33.0493 52.0209 33.0493 45.4303V40.2813H34.9811C39.9158 40.2813 44.6173 38.7066 48.4824 35.847L48.8853 36.4491C50.4901 38.8485 53.1722 40.2813 56.0591 40.2813H56.9543V45.4303H56.9542ZM33.0489 36.29C33.0489 29.6996 38.4108 24.3377 45.0014 24.3377C51.5919 24.3377 56.9538 29.6996 56.9538 36.2902V36.7658H56.0585C54.3477 36.7658 52.7581 35.9168 51.8067 34.4946L51.1567 33.5228C51.6837 32.9881 52.1885 32.4261 52.6667 31.8346C53.277 31.0796 53.1596 29.9729 52.4044 29.3628C51.6499 28.7525 50.5429 28.8697 49.9326 29.6251C46.2652 34.163 40.8156 36.7657 34.9809 36.7657H33.0489V36.29ZM31.3579 52.7117C32.6903 55.1981 34.6824 57.2801 37.0989 58.7222V61.2912C35.9947 60.6062 34.7832 60.0991 33.504 59.7925L27.6174 58.3819V56.341C29.135 55.4468 30.4192 54.1993 31.3579 52.7117ZM33.9486 63.6189L28.37 64.9557C27.6095 65.138 26.8742 65.3734 26.1644 65.6527L27.1325 61.8806L32.6847 63.2113C33.118 63.315 33.54 63.4521 33.9486 63.6189ZM13.3628 39.0861C13.3626 34.963 16.717 31.6086 20.8404 31.6086H22.0561C26.1794 31.6086 29.5338 34.963 29.5338 39.0861V39.5369C26.9973 39.5059 24.5376 38.7585 22.4108 37.3668C21.8261 36.984 21.0704 36.984 20.486 37.3668C18.3592 38.7587 15.8997 39.5061 13.363 39.5369V39.0861H13.3628ZM13.3626 46.8641V43.0527C16.2085 43.0252 18.9792 42.2841 21.448 40.8935C23.9169 42.2843 26.6875 43.0252 29.5335 43.0527V45.4303V46.8641C29.5335 50.9874 26.179 54.3419 22.0557 54.3419H20.84C16.717 54.3419 13.3626 50.9874 13.3626 46.8641ZM16.815 75.2363H3.51936V75.236V71.7023C3.51936 67.6477 6.27368 64.1577 10.2172 63.2159L15.7517 61.8936L18.3664 72.0858C17.7406 73.0716 17.2191 74.1268 16.815 75.2363ZM18.7827 57.6612C19.4496 57.7881 20.1369 57.8572 20.8402 57.8572H22.0559C22.7553 57.8572 23.4386 57.7888 24.102 57.6633V59.5459L21.8994 68.1302C21.6421 68.3374 21.3893 68.55 21.1459 68.7718L18.7827 59.56V57.6612ZM19.3388 86.4853V80.8645C19.3388 76.602 21.4087 72.7634 24.7065 70.4118L40.78 86.4853H19.3388ZM27.9911 68.7249C28.3816 68.5907 28.7806 68.4723 29.1893 68.3744L37.5839 66.3627L41.7097 82.4434L27.9911 68.7249ZM40.6142 64.0283V60.2638C42.0057 60.676 43.4779 60.8985 45.0014 60.8985C46.5307 60.8985 48.0083 60.6744 49.4047 60.259V64.0485L45.0123 81.1698L40.6142 64.0283ZM52.4353 66.3813L60.8046 68.3807C61.2256 68.4812 61.6361 68.6037 62.0379 68.7428L48.3071 82.4738L52.4353 66.3813ZM70.6641 86.4853H49.267L65.317 70.4352C68.6028 72.7873 70.6641 76.6182 70.6641 80.8726V86.4853ZM71.2206 59.5603L68.8556 68.7785C68.6134 68.5579 68.362 68.3466 68.1061 68.1404L65.9011 59.5462V57.6636C66.5645 57.7891 67.2479 57.8575 67.9472 57.8575H69.1629C69.8664 57.8575 70.5537 57.7884 71.2206 57.6615V59.5603ZM86.4835 75.236H73.1853C72.7812 74.1282 72.26 73.0751 71.6351 72.0907L74.2511 61.8935L79.7855 63.2157C83.7292 64.1577 86.4833 67.6477 86.4833 71.7021V75.236H86.4835Z" fill="#008065"/>
<path d="M44.9998 0C44.0293 0 43.2422 0.78715 43.2422 1.75764V9.28355C43.2422 10.2544 44.0292 11.0412 44.9998 11.0412C45.9705 11.0412 46.7575 10.254 46.7575 9.28355V1.75764C46.7576 0.78715 45.9705 0 44.9998 0Z" fill="#008065"/>
<path d="M46.2426 14.1537C45.9158 13.8269 45.4623 13.6387 45 13.6387C44.5358 13.6387 44.0842 13.8268 43.7572 14.1537C43.4303 14.4807 43.2422 14.9326 43.2422 15.3965C43.2422 15.8588 43.4301 16.3123 43.7572 16.6393C44.0842 16.9662 44.5377 17.1543 45 17.1543C45.4623 17.1543 45.9158 16.9662 46.2426 16.6393C46.5696 16.3106 46.7578 15.8588 46.7578 15.3965C46.7578 14.9324 46.5697 14.4807 46.2426 14.1537Z" fill="#008065"/>
<path d="M33.3102 14.5515L26.7974 8.04004C26.1109 7.35361 24.9981 7.35396 24.3115 8.04039C23.6252 8.72681 23.6254 9.83969 24.3118 10.5263L30.8249 17.0378C31.168 17.3809 31.618 17.5525 32.0676 17.5525C32.5176 17.5525 32.9675 17.3807 33.3108 17.0374C33.9968 16.3512 33.9967 15.2381 33.3102 14.5515Z" fill="#008065"/>
<path d="M65.9494 7.76651C65.263 7.08061 64.1505 7.08026 63.4635 7.76651L56.5539 14.676C55.8675 15.3624 55.8675 16.4753 56.5539 17.1619C56.8974 17.5052 57.3472 17.6767 57.797 17.6767C58.2468 17.6767 58.6967 17.505 59.04 17.1619L65.9496 10.2524C66.6358 9.56599 66.6358 8.45294 65.9494 7.76651Z" fill="#008065"/>
</g>
<defs>
<clipPath id="clip0_750_3585">
<rect width="90" height="90" fill="white"/>
</clipPath>
</defs>
</svg>
