<svg width="120" height="120" viewBox="0 0 120 120" fill="none" xmlns="http://www.w3.org/2000/svg">
<path d="M110.04 0H9.96C4.46 0 0 4.46 0 9.96V84.04C0 89.54 4.46 94 9.96 94H37.5L34.38 108H25.98C22.68 108 19.98 110.68 19.98 114C19.98 117.32 22.66 120 25.98 120H93.98C97.28 120 99.98 117.32 99.98 114C99.98 110.68 97.3 108 93.98 108H85.58L82.46 94H110C115.5 94 119.96 89.54 119.96 84.04V9.96C119.96 4.46 115.5 0 110 0H110.04ZM9.96 4H110.04C113.32 4 116 6.68 116 9.96V74H4V9.96C4 6.68 6.68 4 9.96 4ZM96 114C96 115.1 95.1 116 94 116H26C24.9 116 24 115.1 24 114C24 112.9 24.9 112 26 112H94C95.1 112 96 112.9 96 114ZM81.5 108H38.48L41.6 94H78.4L81.52 108H81.5ZM110.04 90H9.96C6.68 90 4 87.32 4 84.04V78H116V84.04C116 87.32 113.32 90 110.04 90Z" fill="#008065"/>
</svg>
